<svg width="26" height="23" viewBox="0 0 26 23" fill="none" xmlns="http://www.w3.org/2000/svg">
<path d="M13 3.61705C13 3.61705 7 -1.63522 1 2.74167V22C7 17.6231 13 22 13 22C13 22 19 17.6231 25 22V2.74167C19 -1.63522 13 3.61705 13 3.61705ZM13 3.61705V22V3.61705Z" fill="#1C009C"/>
<path d="M13 3.61705V22M13 3.61705C13 3.61705 7 -1.63522 1 2.74167V22C7 17.6231 13 22 13 22C13 22 19 17.6231 25 22V2.74167C19 -1.63522 13 3.61705 13 3.61705Z" stroke="white" stroke-width="2" stroke-linecap="round" stroke-linejoin="round"/>
</svg>
