<svg width="24" height="21" viewBox="0 0 24 21" fill="none" xmlns="http://www.w3.org/2000/svg">
<path d="M8 21H2.66667C1.2 21 0 19.95 0 18.6667V2.33333C0 1.05 1.2 0 2.66667 0H8C9.46667 0 10.6667 1.05 10.6667 2.33333V18.6667C10.6667 19.95 9.46667 21 8 21ZM16 21H21.3333C22.8 21 24 19.95 24 18.6667V12.8333C24 11.55 22.8 10.5 21.3333 10.5H16C14.5333 10.5 13.3333 11.55 13.3333 12.8333V18.6667C13.3333 19.95 14.5333 21 16 21ZM24 5.83333V2.33333C24 1.05 22.8 0 21.3333 0H16C14.5333 0 13.3333 1.05 13.3333 2.33333V5.83333C13.3333 7.11667 14.5333 8.16667 16 8.16667H21.3333C22.8 8.16667 24 7.11667 24 5.83333Z" fill="#1C009C"/>
</svg>
