<svg width="24" height="21" viewBox="0 0 24 21" fill="none" xmlns="http://www.w3.org/2000/svg">
<path d="M8 20.5H2.66667C1.41134 20.5 0.5 19.6132 0.5 18.6667V2.33333C0.5 1.38677 1.41134 0.5 2.66667 0.5H8C9.25533 0.5 10.1667 1.38677 10.1667 2.33333V18.6667C10.1667 19.6132 9.25533 20.5 8 20.5ZM21.3333 20.5H16C14.7447 20.5 13.8333 19.6132 13.8333 18.6667V12.8333C13.8333 11.8868 14.7447 11 16 11H21.3333C22.5887 11 23.5 11.8868 23.5 12.8333V18.6667C23.5 19.6132 22.5887 20.5 21.3333 20.5ZM23.5 2.33333V5.83333C23.5 6.7799 22.5887 7.66667 21.3333 7.66667H16C14.7447 7.66667 13.8333 6.7799 13.8333 5.83333V2.33333C13.8333 1.38677 14.7447 0.5 16 0.5H21.3333C22.5887 0.5 23.5 1.38677 23.5 2.33333Z" stroke="black"/>
</svg>
