<svg width="26" height="24" viewBox="0 0 26 24" fill="none" xmlns="http://www.w3.org/2000/svg">
<path d="M8.66667 24H2.88889C1.3 24 0 22.8 0 21.3333V2.66667C0 1.2 1.3 0 2.88889 0H8.66667C10.2556 0 11.5556 1.2 11.5556 2.66667V21.3333C11.5556 22.8 10.2556 24 8.66667 24ZM17.3333 24H23.1111C24.7 24 26 22.8 26 21.3333V14.6667C26 13.2 24.7 12 23.1111 12H17.3333C15.7444 12 14.4444 13.2 14.4444 14.6667V21.3333C14.4444 22.8 15.7444 24 17.3333 24ZM26 6.66667V2.66667C26 1.2 24.7 0 23.1111 0H17.3333C15.7444 0 14.4444 1.2 14.4444 2.66667V6.66667C14.4444 8.13333 15.7444 9.33333 17.3333 9.33333H23.1111C24.7 9.33333 26 8.13333 26 6.66667Z" fill="#1C009C"/>
</svg>
