<svg width="766" height="792" viewBox="0 0 766 792" fill="none" xmlns="http://www.w3.org/2000/svg">
<g filter="url(#filter0_b_137_2)">
<rect x="61" width="1000" height="907" rx="65" fill="#77A1FF" fill-opacity="0.3"/>
<rect x="61" width="1000" height="907" rx="65" fill="url(#paint0_linear_137_2)" fill-opacity="0.2"/>
<rect x="63" y="2" width="996" height="903" rx="63" stroke="url(#paint1_linear_137_2)" stroke-width="4"/>
</g>
<path d="M507.098 417.203L462.146 408.533L375.913 428.32L332.206 437.432L331.573 497.15L429.071 515.101L494.863 495.61L519.734 459.012L507.098 417.203Z" fill="#FFBE9D"/>
<path d="M539.035 423.151L496.615 413.153C496.615 413.153 466.619 505.968 392.599 501.896C332.27 498.627 332.206 437.432 332.206 437.432L288.098 445.216C288.098 445.216 269.598 557.206 289.87 635.761C306.745 701.153 321.722 790.761 321.722 790.761H614.743L539.035 423.151V423.151Z" fill="#FF814B"/>
<path d="M109.197 710.097C109.197 710.097 230.046 498.374 251.794 471.204C275.61 441.461 294.616 444.9 294.616 444.9L307.399 587.518L204.649 733.3L180.158 742.139L109.197 710.097Z" fill="#FF814B"/>
<path d="M533.973 421.97C533.973 421.97 602.656 427.455 627.294 540.098C638.431 590.999 652.607 650.653 656.572 690.732C659.526 719.821 641.574 750.07 612.57 753.783L576.161 760.533C566.542 762.318 556.605 760.348 548.396 755.026C540.186 749.705 534.33 741.439 532.032 731.929L519.734 681.008L552.493 669.996L544.921 518.308L533.973 421.97Z" fill="#FF814B"/>
<path d="M282.487 523.94C282.326 524.447 282.22 524.971 282.17 525.501C281.981 526.64 281.77 528.159 281.474 530.036C281.327 531.028 281.179 532.146 280.989 533.327C280.799 534.508 280.736 535.837 280.609 537.25C280.314 540.056 279.977 543.262 279.829 546.827C279.32 555.164 279.263 563.523 279.66 571.866C280.153 582.078 281.167 592.259 282.698 602.368C284.28 613.126 286.263 623.294 288.267 632.491C290.271 641.688 292.275 649.936 293.983 656.855C295.692 663.774 297.189 669.321 298.202 673.161C298.708 674.996 299.109 676.472 299.425 677.569C299.553 678.086 299.715 678.593 299.911 679.088C299.868 678.56 299.776 678.038 299.636 677.527C299.383 676.388 299.025 674.911 298.603 673.055L294.721 656.581C293.097 649.641 291.157 641.393 289.237 632.196C287.317 622.998 285.335 612.852 283.752 602.115C282.17 591.378 281.095 581.021 280.652 571.718C280.209 562.416 280.166 553.873 280.652 546.785C280.652 543.241 281.031 540.035 281.263 537.208C281.369 535.816 281.474 534.508 281.559 533.285C281.643 532.061 281.833 531.006 281.938 529.994C282.149 528.116 282.297 526.598 282.423 525.459C282.478 524.954 282.5 524.447 282.487 523.94V523.94Z" fill="#263238"/>
<path d="M516.527 686.45C516.673 686.151 516.793 685.841 516.886 685.522C517.097 684.826 517.392 683.94 517.751 682.801L519.101 678.434C519.481 676.448 520.319 674.577 521.548 672.971C523.354 671.238 525.513 669.914 527.876 669.09C530.655 668.039 533.521 667.234 536.44 666.685C543.401 665.395 550.457 664.689 557.535 664.575H558.104V664.027L551.903 623.589C547.916 598.128 544.288 575.072 541.651 558.197C540.28 549.928 539.183 543.199 538.402 538.432C538.023 536.175 537.706 534.382 537.474 533.053C537.474 532.504 537.284 532.04 537.2 531.66C537.185 531.5 537.142 531.343 537.073 531.196C537.041 531.357 537.041 531.522 537.073 531.682C537.073 532.061 537.073 532.525 537.242 533.095C537.411 534.424 537.664 536.217 537.959 538.495C538.655 543.283 539.647 550.034 540.849 558.324C543.423 575.199 546.924 598.213 550.806 623.716C553.084 638.271 555.214 652.045 557.134 664.132L557.619 663.563C550.455 663.747 543.321 664.545 536.293 665.947C533.333 666.537 530.431 667.391 527.623 668.499C525.163 669.401 522.935 670.843 521.105 672.718C520.351 673.565 519.79 674.565 519.46 675.65L518.679 678.455C518.194 680.164 517.793 681.641 517.456 682.864C517.118 684.088 516.907 684.974 516.738 685.627C516.643 685.895 516.572 686.17 516.527 686.45V686.45Z" fill="#263238"/>
<path d="M611.135 703.663C611.068 702.702 610.884 701.753 610.587 700.836C609.924 698.294 609.034 695.816 607.929 693.432C604.332 685.465 598.724 678.571 591.657 673.427C584.589 668.282 576.305 665.065 567.618 664.09C565.015 663.772 562.389 663.687 559.771 663.837C558.804 663.848 557.842 663.969 556.902 664.196C560.427 664.215 563.949 664.434 567.449 664.85C575.939 666.02 584.007 669.271 590.937 674.313C597.867 679.355 603.443 686.031 607.17 693.749C608.668 696.98 609.991 700.29 611.135 703.663V703.663Z" fill="#263238"/>
<path d="M595.251 647.594C594.714 647.458 594.158 647.408 593.605 647.447C592.091 647.419 590.576 647.489 589.07 647.658C584.089 648.159 579.208 649.381 574.578 651.286C569.95 653.202 565.618 655.766 561.711 658.901C560.527 659.838 559.406 660.853 558.357 661.939C557.619 662.719 557.218 663.162 557.281 663.225C557.344 663.289 559.137 661.749 562.175 659.513C570.14 653.676 579.408 649.868 589.176 648.417C592.909 647.869 595.251 647.784 595.251 647.594Z" fill="#263238"/>
<path d="M524.164 501.897C524.302 500.897 524.351 499.888 524.311 498.88C524.311 496.939 524.438 494.155 524.691 490.717C525.324 481.745 526.865 472.862 529.29 464.201C531.749 455.554 535.063 447.173 539.183 439.183C540.786 436.125 542.136 433.678 543.127 432.032C543.683 431.191 544.163 430.301 544.562 429.375C543.889 430.124 543.288 430.937 542.769 431.8C541.651 433.404 540.195 435.787 538.55 438.825C529.771 454.757 524.79 472.501 523.995 490.674C523.847 494.134 523.868 497.003 523.995 498.88C523.951 499.889 524.008 500.899 524.164 501.897V501.897Z" fill="#263238"/>
<g opacity="0.3">
<path d="M285.609 618.421C268.1 588.741 267.721 550.181 283.014 519.278C278.096 552.203 279.153 585.745 286.136 618.295" fill="black"/>
</g>
<g opacity="0.3">
<path d="M441.495 651.982C454.784 655.884 473.136 656.834 486.152 651.982C476.005 666.389 456.451 671.6 439.491 666.917C422.531 662.234 406.879 645.253 405.572 627.681C413.777 638.777 428.185 648.143 441.495 651.982Z" fill="black"/>
</g>
<path d="M392.599 604.056C392.66 604.46 392.766 604.856 392.915 605.237C393.168 605.997 393.464 607.157 394.054 608.549C395.592 612.58 397.506 616.457 399.771 620.13C403.11 625.605 407.144 630.625 411.773 635.064C423.13 646.119 437.79 653.156 453.519 655.104C459.877 655.929 466.315 655.929 472.672 655.104C476.967 654.57 481.203 653.645 485.329 652.341C486.806 651.898 487.881 651.412 488.641 651.138C489.026 651.008 489.4 650.845 489.759 650.653C488.227 650.998 486.713 651.42 485.224 651.919C467.363 656.885 448.317 655.306 431.518 647.468C414.887 639.293 401.748 625.413 394.497 608.359C393.274 605.617 392.704 604.014 392.599 604.056Z" fill="#263238"/>
<path d="M540.764 751.737C540.764 751.737 540.912 751.969 541.292 752.306C541.823 752.835 542.394 753.321 543 753.762C545.207 755.408 547.655 756.703 550.257 757.601C554.126 758.887 558.163 759.598 562.238 759.71C567.167 759.867 572.1 759.69 577.004 759.183C587.551 758.276 596.917 756.736 603.689 755.534C607.085 754.922 609.827 754.395 611.704 753.994C612.704 753.858 613.687 753.618 614.636 753.277C613.632 753.292 612.63 753.391 611.641 753.572L603.562 754.753C596.77 755.787 587.362 757.179 576.899 758.086C571.994 758.593 567.063 758.797 562.133 758.698C558.14 758.614 554.179 757.975 550.362 756.799C546.927 755.602 543.692 753.896 540.764 751.737V751.737Z" fill="#263238"/>
<path d="M302.526 196.726L293.857 188.288C282.318 193.309 276.981 206.703 275.02 219.149C273.058 231.595 273.353 244.673 268.058 256.106C264.008 264.902 256.646 272.982 257.511 282.706C258.334 291.882 266.645 299.307 266.687 308.525C266.687 317.406 259.304 324.219 255.001 331.982C246.289 347.697 240.636 411.993 245.192 429.395C283.521 426.084 351.402 421.991 389.751 413.174C379.647 347.107 337.1 253.87 302.526 196.726Z" fill="#263238"/>
<path d="M285.377 255.621C282.719 210.711 315.331 169.62 360.789 164.199C409.032 158.461 451.705 193.013 455.713 240.011L467.02 429.733C467.226 433.4 466.202 437.03 464.109 440.048C452.971 456.333 432.805 469.074 414.769 471.584C397.324 474.01 379.626 469.475 364.776 461.206C362.313 459.813 360.258 457.798 358.818 455.362C357.378 452.926 356.603 450.155 356.57 447.326L355.79 404.863C355.793 404.826 355.788 404.789 355.776 404.754C355.763 404.72 355.743 404.688 355.717 404.662C355.69 404.636 355.659 404.616 355.624 404.603C355.59 404.59 355.552 404.586 355.516 404.589C351.542 404.888 347.548 404.775 343.597 404.251C332.375 401.509 303.75 390.498 294.131 348.478C290.925 334.556 287.719 295.004 285.377 255.621Z" fill="#FFBE9D"/>
<path d="M347.774 317.659C347.774 317.237 343.07 316.773 335.455 316.351C333.535 316.351 331.7 316.035 331.236 314.769C330.953 312.834 331.277 310.859 332.164 309.116L336.889 294.35C343.429 273.424 348.027 256.275 347.183 256.043C346.34 255.811 340.328 272.539 333.788 293.464C332.227 298.632 330.73 303.547 329.295 308.23C328.705 310.339 327.629 312.913 328.789 315.676C329.112 316.32 329.579 316.882 330.153 317.317C330.727 317.752 331.393 318.05 332.101 318.186C333.177 318.401 334.275 318.479 335.37 318.419C343.049 318.376 347.753 318.081 347.774 317.659Z" fill="#263238"/>
<path d="M297.78 271.505C298.603 272.412 303.581 268.235 310.711 268.024C317.841 267.813 323.157 271.547 323.916 270.577C324.296 270.134 323.431 268.467 321.11 266.738C318.045 264.534 314.337 263.407 310.563 263.531C306.794 263.661 303.178 265.05 300.29 267.476C298.076 269.374 297.253 271.104 297.78 271.505Z" fill="#263238"/>
<path d="M370.218 273.319C371.188 274.226 376.377 269.522 384.161 268.847C391.945 268.172 397.999 271.737 398.779 270.682C399.159 270.197 398.104 268.573 395.468 266.843C391.934 264.75 387.827 263.834 383.739 264.227C379.647 264.59 375.784 266.27 372.728 269.016C370.429 271.062 369.754 272.918 370.218 273.319Z" fill="#263238"/>
<path d="M355.789 404.567C355.789 404.567 384.857 404.884 419.62 381.005C419.62 381.005 410.634 419.355 356.021 418.152L355.789 404.567Z" fill="#EB996E"/>
<path d="M352.098 335.167C353.422 333.3 355.193 331.794 357.249 330.788C359.306 329.782 361.581 329.308 363.868 329.409C365.52 329.433 367.15 329.789 368.661 330.456C370.172 331.122 371.534 332.086 372.665 333.29C373.745 334.443 374.437 335.904 374.645 337.47C374.854 339.036 374.567 340.628 373.825 342.023C371.99 344.955 367.813 345.904 364.164 345.145C360.55 344.156 357.167 342.464 354.207 340.167C353.329 339.604 352.557 338.89 351.929 338.057C351.632 337.668 351.458 337.2 351.428 336.712C351.398 336.223 351.514 335.737 351.76 335.315" fill="#EB996E"/>
<path d="M370.133 321.182C368.91 321.182 369.395 329.198 362.813 335.357C356.232 341.517 347.52 341.221 347.52 342.339C347.52 342.867 349.629 343.774 353.215 343.605C357.97 343.341 362.486 341.441 365.999 338.226C369.344 335.167 371.358 330.919 371.61 326.392C371.715 323.038 370.682 321.182 370.133 321.182Z" fill="#263238"/>
<path d="M368.973 243.914C369.859 245.854 377.263 244.357 386.102 244.715C394.94 245.074 402.218 246.825 403.272 245.032C403.715 244.125 402.365 242.353 399.349 240.623C395.338 238.534 390.908 237.373 386.388 237.227C381.867 237.081 377.372 237.953 373.234 239.779C370.176 241.298 368.678 242.985 368.973 243.914Z" fill="#263238"/>
<path d="M296.24 245.496C297.759 247.183 303.771 245.496 311.006 245.496C318.241 245.496 324.316 246.698 325.772 244.947C326.405 244.104 325.455 242.416 322.798 240.729C319.118 238.8 315.01 237.835 310.856 237.924C306.703 238.012 302.64 239.151 299.045 241.235C296.43 242.943 295.565 244.673 296.24 245.496Z" fill="#263238"/>
<path d="M354.207 154.706C358.131 148.04 365.408 145.003 373.551 143.779C406.795 138.738 443.879 158.756 462.505 186.727C481.131 214.698 482.123 256.443 468.496 287.157L447.76 274.205C406.141 257.034 376.757 216.934 349.988 175.505C346.255 169.873 350.727 160.507 354.207 154.706Z" fill="#263238"/>
<path d="M302.99 172.995C316.892 157.174 326.996 141.353 355.853 152.407C360.071 160.486 351.634 170.97 344.377 177.087C333.83 186.073 324.781 192.127 317.904 198.561C304.024 211.534 288.245 255.178 286.874 278.993C286.874 280.491 284.238 258.553 282.656 258.321C280.715 258.026 272.889 248.449 273.965 235.37C277.677 190.672 289.089 188.794 302.99 172.995Z" fill="#263238"/>
<path d="M373.466 143.779C371.299 143.356 369.056 143.546 366.99 144.328C361.884 145.894 357.331 148.887 353.87 152.955C352.881 154.099 352.005 155.335 351.254 156.647C350.599 157.914 350.089 159.252 349.735 160.634C348.982 162.862 348.411 165.148 348.027 167.468C347.457 171.539 348.427 174.007 348.638 173.944C348.849 173.881 348.533 171.455 349.419 167.721C350.004 165.512 350.709 163.336 351.528 161.203C351.903 159.956 352.398 158.748 353.005 157.596C353.718 156.387 354.537 155.244 355.452 154.179C358.718 150.395 362.85 147.457 367.497 145.615C371.083 144.328 373.508 144.117 373.466 143.779Z" fill="#455A64"/>
<path d="M304.362 285.322C304.359 286.94 304.976 288.497 306.087 289.674C307.197 290.851 308.716 291.558 310.331 291.65C311.134 291.725 311.943 291.639 312.711 291.398C313.48 291.156 314.193 290.763 314.808 290.243C315.422 289.722 315.927 289.084 316.292 288.366C316.658 287.648 316.876 286.864 316.934 286.06C316.975 284.417 316.375 282.822 315.26 281.613C314.146 280.404 312.605 279.677 310.964 279.584C310.15 279.506 309.328 279.595 308.549 279.844C307.769 280.094 307.049 280.499 306.431 281.036C305.814 281.573 305.312 282.229 304.956 282.966C304.6 283.703 304.398 284.504 304.362 285.322V285.322Z" fill="#263238"/>
<path d="M373.846 285.659C373.805 287.302 374.405 288.897 375.52 290.106C376.634 291.315 378.175 292.042 379.816 292.135C380.617 292.213 381.426 292.13 382.194 291.891C382.963 291.652 383.676 291.261 384.291 290.742C384.906 290.223 385.411 289.586 385.777 288.869C386.142 288.152 386.36 287.369 386.418 286.566C386.465 284.919 385.867 283.319 384.752 282.106C383.638 280.892 382.094 280.162 380.449 280.069C379.646 279.991 378.836 280.075 378.066 280.315C377.296 280.556 376.582 280.948 375.967 281.469C375.351 281.991 374.846 282.63 374.482 283.349C374.118 284.069 373.902 284.854 373.846 285.659V285.659Z" fill="#263238"/>
<path d="M565.044 338.458C561.121 332.003 556.607 325.928 549.435 323.249C542.263 320.57 534.12 319.03 528.488 313.799C519.65 305.678 520.05 292.177 520.852 280.407C521.654 268.636 521.865 255.094 512.836 247.183C505.284 240.581 493.282 239.99 486.743 232.417C482.376 227.376 481.511 220.415 479.992 213.981C475.774 196.747 466.344 166.645 415.549 149.327L460.48 320.064C457.126 321.013 449.11 328.649 448.667 333.817C448.267 338.648 450.355 343.542 450.397 348.394C450.397 354.321 443.942 357.865 439.85 362.252C434.661 367.842 433.058 375.9 433.859 383.347C435.523 393.524 438.245 403.499 441.981 413.111C483.663 408.892 544.499 407.542 576.267 380.963C582.025 376.154 573.777 352.823 565.044 338.458Z" fill="#263238"/>
<path d="M447.676 274.205C448.456 273.783 479.149 261.548 481.11 293.928C483.072 326.308 450.228 321.498 450.123 320.591C450.017 319.684 447.676 274.205 447.676 274.205Z" fill="#FFBE9D"/>
<path d="M459.236 307.766C459.384 307.639 459.827 308.125 460.818 308.483C462.19 308.985 463.703 308.932 465.037 308.336C468.37 306.859 470.922 301.269 470.732 295.447C470.625 292.673 469.905 289.957 468.623 287.494C468.255 286.505 467.655 285.619 466.873 284.911C466.091 284.202 465.15 283.692 464.13 283.423C463.472 283.292 462.789 283.395 462.199 283.715C461.61 284.035 461.151 284.551 460.902 285.174C460.523 286.102 460.776 286.735 460.607 286.798C460.438 286.862 459.869 286.292 460.059 284.942C460.18 284.127 460.583 283.381 461.198 282.833C462.043 282.104 463.143 281.74 464.256 281.82C465.598 281.998 466.872 282.519 467.954 283.332C469.036 284.144 469.892 285.222 470.437 286.461C471.979 289.181 472.833 292.237 472.926 295.363C473.116 301.881 470.163 308.167 465.564 309.791C464.715 310.1 463.806 310.211 462.906 310.116C462.007 310.021 461.141 309.722 460.375 309.243C459.341 308.525 459.131 307.829 459.236 307.766Z" fill="#EB996E"/>
<path d="M332.818 282.664C332.646 280.23 332.301 277.812 331.784 275.428C330.808 271.439 329.011 267.697 326.508 264.442C324.004 261.186 320.849 258.489 317.244 256.522C313.639 254.554 309.664 253.361 305.571 253.017C301.479 252.673 297.36 253.186 293.477 254.524C290.803 255.426 288.284 256.735 286.01 258.405C283.58 260.085 281.442 262.151 279.681 264.523C275.901 269.472 273.808 275.503 273.71 281.73C273.611 287.956 275.512 294.051 279.133 299.117C280.805 301.539 282.856 303.676 285.208 305.446C287.424 307.192 289.902 308.581 292.549 309.559C297.443 311.444 302.753 311.983 307.926 311.12C312.438 310.375 316.709 308.576 320.393 305.867C325.787 301.944 329.702 296.319 331.51 289.899C332.092 287.525 332.515 285.115 332.775 282.685C332.784 282.846 332.784 283.008 332.775 283.17C332.775 283.571 332.775 284.035 332.775 284.604C332.757 285.376 332.68 286.144 332.543 286.904C332.428 287.951 332.23 288.988 331.953 290.005C330.26 296.609 326.35 302.432 320.878 306.5C316.826 309.533 312.073 311.49 307.06 312.191C302.048 312.892 296.94 312.313 292.211 310.508C286.598 308.387 281.744 304.641 278.268 299.75C274.507 294.501 272.532 288.183 272.634 281.726C272.737 275.269 274.911 269.017 278.837 263.89C280.665 261.445 282.873 259.308 285.377 257.562C287.715 255.883 290.297 254.574 293.034 253.68C297.816 252.028 302.939 251.612 307.926 252.471C312.912 253.33 317.6 255.437 321.553 258.595C326.905 262.84 330.63 268.8 332.1 275.471C332.342 276.498 332.511 277.541 332.607 278.593C332.71 279.362 332.759 280.137 332.754 280.913C332.754 281.483 332.754 281.947 332.754 282.326C332.78 282.438 332.801 282.55 332.818 282.664V282.664Z" fill="#455A64"/>
<path d="M414.326 283.972C414.157 281.539 413.818 279.122 413.313 276.736C411.727 270.266 408.012 264.516 402.766 260.409C399.167 257.587 394.954 255.65 390.468 254.756C385.324 253.739 380.001 254.111 375.048 255.832C372.378 256.743 369.86 258.051 367.581 259.713C365.156 261.398 363.019 263.464 361.253 265.831C357.478 270.777 355.386 276.802 355.283 283.024C355.181 289.245 357.073 295.336 360.683 300.404C362.365 302.825 364.423 304.962 366.779 306.732C368.995 308.48 371.472 309.868 374.12 310.846C379.014 312.731 384.324 313.27 389.498 312.407C394.003 311.663 398.268 309.863 401.943 307.154C407.341 303.231 411.264 297.607 413.081 291.186C413.663 288.813 414.078 286.402 414.326 283.972C414.348 284.133 414.348 284.296 414.326 284.457C414.326 284.837 414.326 285.322 414.326 285.891C414.327 286.663 414.256 287.432 414.115 288.191C414.001 289.24 413.797 290.278 413.503 291.291C411.827 297.904 407.914 303.733 402.429 307.787C398.697 310.589 394.363 312.482 389.772 313.314C384.437 314.233 378.952 313.709 373.888 311.795C368.266 309.69 363.408 305.941 359.945 301.037C356.183 295.788 354.208 289.469 354.311 283.013C354.414 276.556 356.588 270.304 360.514 265.177C364.143 260.395 369.115 256.804 374.795 254.862C379.919 253.111 385.42 252.768 390.721 253.87C396.368 255.031 401.56 257.796 405.676 261.832C409.791 265.869 412.655 271.008 413.925 276.631C414.187 277.654 414.356 278.699 414.431 279.753C414.556 280.52 414.606 281.297 414.579 282.073V283.487C414.531 283.665 414.444 283.83 414.326 283.972V283.972Z" fill="#455A64"/>
<path d="M356.106 281.757C355.937 281.862 355.093 280.491 353.131 278.909C350.617 276.823 347.467 275.656 344.201 275.598C340.934 275.541 337.746 276.597 335.159 278.593C333.05 280.09 332.248 281.44 332.1 281.314C332.625 279.981 333.517 278.825 334.674 277.981C337.316 275.668 340.725 274.423 344.236 274.49C347.746 274.556 351.106 275.929 353.659 278.339C354.779 279.226 355.627 280.411 356.106 281.757V281.757Z" fill="#455A64"/>
<path d="M455.101 272.138C453.159 272.753 451.158 273.163 449.131 273.361C445.397 273.952 440.229 274.5 434.534 275.007L419.916 276.314C417.912 276.623 415.888 276.778 413.862 276.778C415.803 276.157 417.804 275.74 419.831 275.534C423.544 274.964 428.712 274.416 434.428 273.91L449.026 272.602C451.035 272.28 453.066 272.125 455.101 272.138V272.138Z" fill="#455A64"/>
<path d="M285.735 300.91C283.103 297.868 280.967 294.43 279.407 290.722C278.182 286.882 277.562 282.876 277.572 278.846C277.102 279.981 276.886 281.204 276.939 282.432C276.863 285.386 277.35 288.328 278.373 291.101C279.394 293.875 280.941 296.425 282.93 298.611C284.469 300.256 285.651 301.016 285.735 300.91Z" fill="white"/>
<path d="M280.63 267.581C280.462 267.328 279.259 267.94 278.521 269.374C277.783 270.809 278.099 272.117 278.394 272.096C278.69 272.074 278.943 270.999 279.512 269.838C280.082 268.678 280.82 267.813 280.63 267.581Z" fill="white"/>
<path d="M360.197 294.519C360.366 294.519 359.776 292.831 359.29 290.11C358.047 282.973 359.417 275.626 363.151 269.417C364.564 267.054 365.703 265.746 365.577 265.62C364.334 266.527 363.286 267.674 362.497 268.995C360.378 272.062 358.922 275.537 358.222 279.198C357.521 282.858 357.59 286.625 358.426 290.258C358.723 291.783 359.325 293.233 360.197 294.519Z" fill="white"/>
<path d="M472.335 320.148C472.335 320.148 472.778 320.781 473.411 321.941C474.318 323.589 474.797 325.439 474.803 327.32C474.837 328.684 474.588 330.041 474.073 331.304C473.557 332.567 472.786 333.71 471.808 334.661C470.627 335.834 469.187 336.711 467.603 337.221C466.019 337.73 464.337 337.858 462.695 337.593C461.063 337.257 459.532 336.547 458.221 335.518C456.911 334.49 455.857 333.171 455.143 331.666C454.566 330.429 454.248 329.088 454.208 327.724C454.169 326.36 454.408 325.002 454.911 323.734C455.576 321.979 456.663 320.414 458.075 319.178C459.088 318.313 459.763 317.954 459.721 317.87C459.024 318.049 458.375 318.38 457.822 318.84C456.213 320.011 454.957 321.602 454.194 323.439C453.583 324.799 453.267 326.272 453.267 327.763C453.267 329.254 453.583 330.728 454.194 332.088C454.92 333.783 456.055 335.271 457.498 336.419C458.942 337.567 460.647 338.339 462.462 338.665C464.277 338.992 466.145 338.862 467.898 338.288C469.65 337.715 471.233 336.715 472.504 335.378C473.555 334.324 474.371 333.059 474.898 331.666C475.425 330.274 475.652 328.785 475.562 327.299C475.489 325.313 474.869 323.386 473.769 321.73C473.031 320.57 472.335 320.106 472.335 320.148Z" fill="#E0E0E0"/>
<path d="M294.152 345.04C292.367 345.754 290.399 345.872 288.541 345.377C286.554 344.821 284.763 343.717 283.373 342.192C281.66 340.342 280.504 338.046 280.04 335.568C279.557 333.089 279.867 330.521 280.926 328.227C281.795 326.347 283.087 324.694 284.702 323.397C286.26 322.257 287.963 321.328 289.764 320.634C289.228 320.586 288.687 320.658 288.182 320.844C286.756 321.24 285.412 321.891 284.217 322.764C282.425 324.081 280.978 325.81 279.998 327.806C278.793 330.272 278.423 333.063 278.943 335.758C279.459 338.452 280.749 340.937 282.656 342.909C284.203 344.523 286.191 345.645 288.372 346.137C289.834 346.481 291.363 346.401 292.781 345.904C293.772 345.504 294.194 345.082 294.152 345.04Z" fill="#E0E0E0"/>
<path d="M411.161 763.887L379.879 773.147C379.879 773.147 362.624 780.551 354.228 782.471C343.808 784.855 336.699 781.627 336.319 775.826C335.939 770.025 344.04 769.287 344.04 769.287C350.924 766.664 357.62 763.57 364.079 760.027C368.77 756.769 372.605 752.427 375.259 747.37L364.079 748.91C364.079 748.91 340.559 765.785 331.699 770.89C322.84 775.995 320.899 767.03 320.14 764.33C319.38 761.63 346.339 734.271 346.339 734.271C346.339 734.271 320.519 750.851 315.9 754.985C311.28 759.12 304.319 760.47 302.779 757.791C301.239 755.112 296.999 755.091 302.779 743.658C308.559 732.225 354.819 701.469 354.819 701.469L342.162 698.769L328.282 704.95C327.316 709.712 325.345 714.214 322.502 718.155C317.503 725.58 308.622 718.155 308.622 718.155L314.128 689.677L341.55 672.507C341.55 672.507 370.07 675.987 374.31 677.907C378.55 679.826 383.191 687.905 383.191 687.905L390.89 691.027C402.85 694.487 402.45 706.447 406.31 706.827C410.17 707.207 522.687 685.269 522.687 685.269L532.875 682.611C549.751 695.415 556.48 716.573 559.454 735.346C559.454 735.346 562.555 744.544 559.454 749.606L411.161 763.887Z" fill="#FFBE9D"/>
<path d="M431.813 743.869C431.946 743.266 431.981 742.647 431.918 742.033C431.926 741.326 431.862 740.619 431.728 739.924C431.63 738.967 431.446 738.021 431.18 737.097C429.596 731.771 426.916 726.835 423.312 722.606C419.812 718.354 415.913 714.448 411.668 710.94C409.985 709.406 408.155 708.043 406.204 706.869C407.765 708.485 409.42 710.006 411.161 711.426C415.219 715.061 418.998 718.996 422.468 723.196C425.971 727.335 428.668 732.093 430.42 737.224C431.665 741.253 431.581 743.89 431.813 743.869Z" fill="#EB996E"/>
<path d="M383.085 687.906C383.085 687.906 384.013 688.391 385.448 689.551C387.447 691.239 389.176 693.224 390.574 695.436C391.583 696.932 392.444 698.521 393.147 700.183C393.796 702.137 394.207 704.163 394.371 706.215C394.661 708.603 395.514 710.888 396.86 712.881C398.386 714.811 399.643 716.94 400.593 719.21C402.038 723.044 402.038 727.272 400.593 731.107L400.446 731.507L400.804 731.739C405.695 734.898 409.236 739.763 410.74 745.387C411.258 747.605 411.576 749.864 411.689 752.138C411.86 751.549 411.932 750.936 411.9 750.324C411.923 748.613 411.739 746.906 411.351 745.24C410.006 739.331 406.422 734.174 401.353 730.854L401.564 731.486C403.091 727.406 403.091 722.911 401.564 718.83C400.59 716.495 399.283 714.313 397.682 712.354C396.399 710.464 395.589 708.294 395.32 706.026C395.066 702.005 393.594 698.157 391.101 694.993C389.612 692.751 387.742 690.788 385.574 689.192C384.991 688.753 384.353 688.392 383.676 688.117C383.489 688.021 383.29 687.951 383.085 687.906V687.906Z" fill="#EB996E"/>
<path d="M356 700.52C358.699 700.87 361.443 700.578 364.008 699.669C366.574 698.76 368.889 697.26 370.766 695.289C370.555 695.035 367.729 697.208 363.657 698.621C359.586 700.035 356 700.204 356 700.52Z" fill="#EB996E"/>
<path d="M348.786 731.676C352.859 730.533 356.82 729.022 360.62 727.162C364.567 725.646 368.378 723.797 372.011 721.635C367.948 722.809 363.989 724.319 360.177 726.149C356.23 727.665 352.419 729.514 348.786 731.676V731.676Z" fill="#EB996E"/>
<path d="M374.162 747.075C378.258 745.687 382.26 744.038 386.144 742.139C383.942 742.236 381.786 742.797 379.816 743.784C377.714 744.455 375.784 745.578 374.162 747.075Z" fill="#EB996E"/>
<path d="M352.667 733.68C354.483 734.654 356.081 735.989 357.361 737.604C358.642 739.218 359.579 741.077 360.114 743.067C360.261 743.067 360.388 742.329 360.114 741.147C359.815 739.6 359.15 738.147 358.174 736.91C357.197 735.673 355.938 734.688 354.503 734.039C353.469 733.596 352.71 733.553 352.667 733.68Z" fill="#EB996E"/>
<path d="M341.361 716.573C341.234 716.868 343.301 717.923 344.693 720.285C345.402 721.784 345.995 723.336 346.465 724.926C346.765 724.055 346.844 723.124 346.697 722.215C346.55 721.306 346.18 720.447 345.622 719.716C344.018 717.016 341.403 716.277 341.361 716.573Z" fill="#EB996E"/>
<path d="M344.546 685.585C344.651 685.585 345.073 685.1 345.389 684.087C345.769 682.707 345.769 681.249 345.389 679.869C345.022 678.505 344.293 677.266 343.28 676.283C342.521 675.544 341.888 675.291 341.825 675.397C342.831 676.87 343.646 678.465 344.25 680.143C344.564 681.939 344.663 683.766 344.546 685.585V685.585Z" fill="#EB996E"/>
<path d="M116.495 695.288C116.495 695.288 117.909 667.613 146.597 661.875C175.285 656.138 225.532 680.522 225.532 680.522L366.315 778.632L362.096 790.761L219.203 770.848L206.125 775.868L105.758 709.928L11.0452 641.456L21.5924 633.208C21.5924 633.208 48.1289 651.497 65.6794 659.365C83.2298 667.233 108.606 681.029 116.495 695.288Z" fill="#F5F5F5"/>
<path d="M368.488 794.769L249.348 720.749L123.394 700.52C123.394 700.52 117.066 709.675 106.371 707.439L2.79826 635.718L0.836508 640.043L201.696 781.163C204.646 782.241 207.833 782.492 210.915 781.89C213.997 781.288 216.856 779.855 219.183 777.746L368.488 794.769Z" fill="#455A64"/>
<path d="M123.394 700.52C123.679 700.83 124.006 701.1 124.364 701.321L127.275 703.431C129.807 705.245 133.456 707.882 137.822 711.215C146.766 717.859 158.917 727.331 172.037 738.068C185.158 748.805 196.95 758.782 205.387 766.06L215.449 774.708L218.191 777.029C218.488 777.323 218.821 777.578 219.183 777.788C219.183 777.788 218.93 777.451 218.339 776.881L215.744 774.392C213.466 772.283 210.155 769.203 205.978 765.511C197.667 758.086 186.002 748.045 172.818 737.266C159.634 726.487 147.505 717.121 138.371 710.624C133.857 707.354 130.123 704.823 127.507 703.114L124.491 701.174C124.146 700.923 123.779 700.704 123.394 700.52Z" fill="#263238"/>
<path d="M124.681 685.121C136.093 672.865 154.065 668.499 170.772 669.807C187.478 671.115 203.32 677.337 218.909 683.518L364.649 783.273L363.341 787.027L216.82 687.884C216.82 687.884 184.082 677.337 169.59 675.523C145.374 672.507 124.681 685.121 124.681 685.121Z" fill="#E0E0E0"/>
<path d="M101.814 698.242L31.7391 650.969C31.7391 650.969 89.1577 680.839 101.814 698.242Z" fill="#E0E0E0"/>
<path d="M364.649 783.273C364.47 783.09 364.272 782.928 364.058 782.787L362.244 781.501L355.262 776.586L329.443 758.698L244.011 700.035L219.204 683.159C205.089 676.791 190.194 672.315 174.906 669.849C162.557 668.105 149.966 669.881 138.582 674.975C134.324 676.955 130.403 679.588 126.959 682.78C124.383 685.18 122.192 687.962 120.462 691.027C119.374 692.949 118.524 694.996 117.93 697.124C117.783 697.82 117.656 698.368 117.551 698.79C117.504 698.978 117.469 699.168 117.445 699.36C118.204 696.514 119.324 693.778 120.778 691.217C122.551 688.231 124.754 685.523 127.317 683.18C130.771 680.087 134.667 677.528 138.877 675.586C150.152 670.685 162.569 669.02 174.737 670.777C189.902 673.262 204.679 677.708 218.698 684.003H218.592L243.399 700.878L328.894 759.331L354.924 776.944L362.012 781.669L363.889 782.893C364.129 783.045 364.383 783.173 364.649 783.273V783.273Z" fill="#263238"/>
<path d="M237.071 707.861C236.739 707.585 236.369 707.358 235.974 707.186C235.236 706.785 234.139 706.173 232.725 705.456C229.878 703.979 225.722 701.912 220.491 699.55C206.926 693.191 192.531 688.781 177.733 686.45C162.856 684.205 147.657 685.594 133.435 690.5C129.161 692.042 125.054 694.014 121.179 696.385C119.787 697.187 118.795 697.968 118.099 698.495C117.731 698.722 117.385 698.983 117.066 699.275C117.066 699.275 118.605 698.389 121.39 696.807C125.314 694.604 129.43 692.761 133.688 691.302C147.845 686.658 162.893 685.394 177.627 687.61C192.319 689.934 206.64 694.189 220.217 700.267C225.469 702.545 229.667 704.486 232.578 705.857L235.911 707.397C236.281 707.589 236.67 707.745 237.071 707.861V707.861Z" fill="#263238"/>
<path d="M14.8006 638.482C14.8006 638.482 15.0959 638.756 15.7077 639.178L18.4288 640.992L28.5329 647.489C37.0972 652.973 48.889 660.546 61.8197 669.068C74.7505 677.59 86.3101 685.416 94.7478 691.112L104.725 697.82L107.468 699.613C107.774 699.837 108.107 700.021 108.459 700.161C108.198 699.885 107.908 699.638 107.594 699.423L104.957 697.461C102.679 695.774 99.3464 693.39 95.1908 690.458C86.8797 684.615 75.32 676.662 62.3681 668.14C49.4163 659.618 37.5402 652.151 28.8916 646.835C24.5672 644.177 21.0445 642.068 18.5976 640.633L15.7498 638.988C15.4498 638.79 15.1321 638.621 14.8006 638.482Z" fill="#263238"/>
<path d="M78.5471 714.337C79.9782 717.78 81.797 721.05 83.9683 724.082C86.6684 727.289 95.4857 731.761 96.1818 737.857C96.8779 743.953 95.4435 758.255 104.978 769.14C111.124 775.91 118.902 780.994 127.57 783.905L165.181 780.235L225.258 756.588C226.6 756.249 227.756 755.395 228.474 754.211C229.192 753.027 229.416 751.608 229.097 750.26C228.724 748.795 227.923 747.474 226.796 746.467C225.668 745.46 224.266 744.812 222.768 744.607L221.334 744.375C221.334 744.375 224.793 741.548 219.836 736.591C215.617 732.372 206.61 734.756 201.97 736.296C197.329 737.836 170.117 749.205 165.244 750.956C160.92 752.496 157.587 753.867 157.587 753.867C157.587 753.867 192.414 730.368 192.899 727.288C193.469 723.597 193.089 721.909 189.524 719.336C185.305 716.277 178.386 719.547 171.678 722.374C166.679 724.483 134.805 740.219 134.805 740.219C134.805 740.219 133.371 738.827 134.805 736C136.24 733.174 146.829 719.547 148.496 717.016C150.162 714.484 150.605 713.05 148.939 710.919C146.618 707.903 140.501 706.468 134.869 711.615C131.304 714.906 118.626 723.428 118.626 723.428L60.1106 680.734C60.1106 680.734 52.8331 680.544 55.3644 690.69C57.8957 700.836 78.5471 714.337 78.5471 714.337Z" fill="#FFBE9D"/>
<path d="M122.17 749.923C124.511 749.403 126.692 748.326 128.528 746.783C130.364 745.241 131.801 743.279 132.718 741.063C132.443 740.894 130.735 743.51 127.824 745.936C124.913 748.362 122.023 749.606 122.17 749.923Z" fill="#EB996E"/>
<path d="M117.361 724.462C117.361 724.335 116.58 724.103 115.252 724.272C113.594 724.513 112.034 725.205 110.743 726.273C109.452 727.34 108.479 728.743 107.932 730.326C107.531 731.55 107.594 732.436 107.742 732.436C108.626 730.466 109.887 728.689 111.455 727.204C113.227 725.915 115.233 724.984 117.361 724.462Z" fill="#EB996E"/>
<path d="M114.598 736.211C114.914 736.211 115.062 733.068 116.306 729.482C117.551 725.896 119.302 723.259 119.049 723.154C117.195 724.734 115.876 726.849 115.273 729.208C114.33 731.417 114.094 733.863 114.598 736.211V736.211Z" fill="#EB996E"/>
<path d="M79.9816 711.299C79.9816 711.405 80.7198 710.983 81.4792 709.97C82.442 708.626 83.0444 707.057 83.229 705.414C83.4136 703.771 83.1743 702.108 82.534 700.583C82.0277 699.444 81.4582 698.875 81.3527 698.959C82.1044 700.98 82.372 703.149 82.1339 705.292C81.8957 707.435 81.1586 709.492 79.9816 711.299V711.299Z" fill="#EB996E"/>
<path d="M132.865 764.646C134.219 764.956 135.625 764.956 136.979 764.646C140.257 764.066 143.402 762.894 146.26 761.187C149.105 759.515 151.783 757.572 154.255 755.386C155.355 754.579 156.329 753.612 157.145 752.517C155.931 753.127 154.797 753.885 153.77 754.774C151.198 756.759 148.507 758.584 145.712 760.238C142.944 761.878 139.952 763.107 136.831 763.887C134.426 764.393 132.865 764.478 132.865 764.646Z" fill="#EB996E"/>
<path d="M123.077 758.613C122.782 758.613 122.761 760.723 124.533 762.474C126.305 764.225 128.456 764.14 128.414 763.845C128.372 763.549 126.748 763.128 125.313 761.735C123.879 760.343 123.394 758.571 123.077 758.613Z" fill="#EB996E"/>
<path d="M108.712 748.066C108.586 748.066 108.586 748.636 108.987 749.395C109.541 750.331 110.374 751.069 111.37 751.505C112.359 751.985 113.471 752.147 114.556 751.969C115.399 751.8 115.821 751.463 115.758 751.336C115.695 751.209 113.817 751.505 111.834 750.513C109.851 749.522 109.008 747.961 108.712 748.066Z" fill="#EB996E"/>
<path d="M159.381 772.008C159.486 772.283 173.472 766.461 190.6 758.972C207.729 751.484 221.524 745.176 221.314 744.923C221.103 744.67 207.201 750.492 190.073 757.981C172.944 765.469 159.254 771.734 159.381 772.008Z" fill="#EB996E"/>
<path d="M66 793.186C66 792.21 222.72 791.373 415.984 791.373C609.249 791.373 766 792.21 766 793.186C766 794.163 609.311 795 415.984 795C222.657 795 66 794.233 66 793.186Z" fill="#263238"/>
<path d="M836.016 567.421L790.242 792.138H392.932C390.828 792.138 388.811 791.303 387.323 789.815C385.836 788.328 385 786.31 385 784.207V784.207C384.997 783.163 385.2 782.13 385.598 781.165C385.995 780.2 386.579 779.323 387.316 778.585C388.052 777.846 388.928 777.26 389.891 776.86C390.855 776.46 391.888 776.254 392.932 776.254H472.921L515.363 567.189C515.756 565.238 516.81 563.482 518.347 562.218C519.884 560.954 521.81 560.258 523.8 560.249L827.41 557C828.706 556.987 829.988 557.264 831.163 557.81C832.337 558.356 833.375 559.158 834.2 560.156C835.026 561.155 835.617 562.326 835.931 563.583C836.245 564.84 836.274 566.151 836.016 567.421V567.421Z" fill="#E0E0E0"/>
<path d="M835.747 566.107L835.874 565.432C835.959 564.732 835.959 564.023 835.874 563.323C835.724 561.978 835.265 560.686 834.533 559.548C833.801 558.41 832.816 557.457 831.655 556.762C830.848 556.266 829.964 555.91 829.039 555.708C828.008 555.536 826.962 555.473 825.917 555.518H818.766L800.878 555.665L686.062 556.741L606.031 557.564L561.184 558.007L537.685 558.26L525.661 558.387C524.628 558.387 523.679 558.387 522.582 558.387C521.51 558.507 520.468 558.814 519.502 559.294C517.555 560.243 516.013 561.86 515.156 563.85C514.761 564.835 514.478 565.861 514.313 566.909L513.701 569.925C513.3 572.035 512.878 573.975 512.456 576C511.641 580.064 510.811 584.157 509.967 588.277C508.294 596.504 506.599 604.836 504.884 613.274C501.452 630.149 497.937 647.397 494.336 665.018C487.185 700.245 479.718 736.886 472.061 774.708L472.588 774.286H393.928C392.89 774.247 391.852 774.311 390.827 774.476C388.716 774.93 386.858 776.175 385.638 777.957C384.403 779.733 383.897 781.915 384.224 784.053C384.416 785.348 384.907 786.581 385.657 787.653C386.408 788.726 387.398 789.609 388.549 790.234C389.708 790.851 390.991 791.197 392.304 791.246H603.436H789.972H790.31V790.909C804.317 721.825 815.623 665.651 823.576 626.711C827.499 607.262 830.537 592.116 832.604 581.822C833.617 576.675 834.39 572.773 834.924 570.115C835.452 567.457 835.684 566.107 835.684 566.107C835.684 566.107 835.367 567.457 834.819 570.073C834.27 572.688 833.427 576.654 832.372 581.759C830.263 592.053 827.119 607.178 823.112 626.626C815.138 665.545 803.642 721.698 789.487 790.74L789.909 790.402L603.373 790.297H392.388C391.254 790.252 390.145 789.957 389.139 789.432C388.141 788.883 387.282 788.113 386.628 787.18C385.973 786.248 385.541 785.178 385.364 784.053C385.091 782.184 385.528 780.28 386.587 778.716C387.667 777.177 389.285 776.1 391.122 775.7C392.071 775.556 393.032 775.5 393.991 775.531H473.095V775.109C480.752 737.329 488.198 700.688 495.328 665.419C498.914 647.784 502.43 630.529 505.875 613.654L510.938 588.657C511.76 584.543 512.604 580.451 513.427 576.401C513.828 574.292 514.249 572.33 514.65 570.326L515.262 567.288C515.42 566.309 515.674 565.348 516.021 564.42C516.602 563.088 517.524 561.934 518.695 561.074C519.865 560.215 521.243 559.68 522.687 559.526C523.615 559.526 524.67 559.526 525.661 559.526L537.685 559.378L561.205 559.125L606.031 558.598L686.083 557.648L800.899 556.235L818.766 556.003L825.917 555.897C826.947 555.834 827.98 555.891 828.997 556.066C829.903 556.253 830.773 556.588 831.57 557.058C832.708 557.722 833.68 558.638 834.411 559.734C835.142 560.831 835.613 562.08 835.789 563.386C835.873 564.292 835.859 565.204 835.747 566.107V566.107Z" fill="#263238"/>
<path d="M665.791 682.062C658.544 682.062 652.67 676.188 652.67 668.942C652.67 661.695 658.544 655.821 665.791 655.821C673.037 655.821 678.911 661.695 678.911 668.942C678.911 676.188 673.037 682.062 665.791 682.062Z" fill="white"/>
<path d="M835.367 567.985C835.367 567.985 834.903 567.985 833.996 567.985H814.547L757.741 568.259L570.318 569.567L543.212 569.799H536.546C535.41 569.756 534.272 569.827 533.15 570.01C531.434 570.359 529.847 571.176 528.566 572.371C527.286 573.566 526.361 575.093 525.894 576.781C525.387 578.89 525.029 581 524.586 583.109L514.903 631.921C508.765 663.035 503.217 690.985 498.577 714.59C493.936 738.194 490.139 757.137 487.65 770.321C486.384 776.881 485.414 781.986 484.739 785.487C484.422 787.196 484.169 788.525 484 789.453C483.832 790.381 483.789 790.803 483.789 790.803C483.789 790.803 483.916 790.36 484.106 789.474C484.296 788.588 484.591 787.238 484.95 785.53L488.072 770.489C490.73 757.306 494.569 738.3 499.336 714.822C504.103 691.344 509.672 663.288 515.895 632.196C518.996 616.649 522.223 600.322 525.641 583.405C526.083 581.295 526.463 579.186 526.927 577.076C527.484 575.072 528.761 573.345 530.513 572.225C531.382 571.668 532.348 571.282 533.361 571.085C534.42 570.913 535.495 570.849 536.567 570.896H543.212L570.318 570.685L757.741 569.039L814.547 568.407L829.988 567.985H834.017H835.367Z" fill="#263238"/>
<defs>
<filter id="filter0_b_137_2" x="-39" y="-100" width="1200" height="1107" filterUnits="userSpaceOnUse" color-interpolation-filters="sRGB">
<feFlood flood-opacity="0" result="BackgroundImageFix"/>
<feGaussianBlur in="BackgroundImageFix" stdDeviation="50"/>
<feComposite in2="SourceAlpha" operator="in" result="effect1_backgroundBlur_137_2"/>
<feBlend mode="normal" in="SourceGraphic" in2="effect1_backgroundBlur_137_2" result="shape"/>
</filter>
<linearGradient id="paint0_linear_137_2" x1="310.211" y1="-41.4256" x2="1177.93" y2="740.42" gradientUnits="userSpaceOnUse">
<stop stop-color="#FF6E7F"/>
<stop offset="0.510417" stop-color="#1C009C"/>
<stop offset="1" stop-color="#BFE9FF"/>
</linearGradient>
<linearGradient id="paint1_linear_137_2" x1="215.762" y1="226.75" x2="980.766" y2="305.537" gradientUnits="userSpaceOnUse">
<stop stop-color="white"/>
<stop offset="0.25" stop-color="white" stop-opacity="0.43"/>
<stop offset="0.5" stop-color="white"/>
<stop offset="0.75" stop-color="white" stop-opacity="0.42"/>
<stop offset="1" stop-color="white"/>
</linearGradient>
</defs>
</svg>
