<svg width="853" height="769" viewBox="0 0 853 769" fill="none" xmlns="http://www.w3.org/2000/svg">
<g filter="url(#filter0_b_137_2)">
<rect x="153" width="1000" height="907" rx="65" fill="#77A1FF" fill-opacity="0.3"/>
<rect x="153" width="1000" height="907" rx="65" fill="url(#paint0_linear_137_2)" fill-opacity="0.2"/>
<rect x="155" y="2" width="996" height="903" rx="63" stroke="url(#paint1_linear_137_2)" stroke-width="4"/>
</g>
<path d="M594.098 395.203L549.146 386.533L462.913 406.32L419.206 415.432L418.573 475.15L516.071 493.101L581.863 473.61L606.734 437.012L594.098 395.203Z" fill="#FFBE9D"/>
<path d="M626.035 401.151L583.615 391.153C583.615 391.153 553.619 483.968 479.599 479.896C419.27 476.627 419.206 415.432 419.206 415.432L375.098 423.216C375.098 423.216 356.598 535.206 376.87 613.761C393.745 679.153 408.722 768.761 408.722 768.761H701.743L626.035 401.151V401.151Z" fill="#FF814B"/>
<path d="M196.197 688.097C196.197 688.097 317.046 476.374 338.794 449.204C362.61 419.461 381.616 422.9 381.616 422.9L394.399 565.518L291.649 711.3L267.158 720.139L196.197 688.097Z" fill="#FF814B"/>
<path d="M620.973 399.97C620.973 399.97 689.656 405.455 714.294 518.098C725.431 568.999 739.607 628.653 743.572 668.732C746.526 697.821 728.574 728.07 699.57 731.783L663.161 738.533C653.542 740.318 643.605 738.348 635.396 733.026C627.186 727.705 621.33 719.439 619.032 709.929L606.734 659.008L639.493 647.996L631.921 496.308L620.973 399.97Z" fill="#FF814B"/>
<path d="M369.487 501.94C369.326 502.447 369.22 502.971 369.17 503.501C368.981 504.64 368.77 506.159 368.474 508.036C368.327 509.028 368.179 510.146 367.989 511.327C367.799 512.508 367.736 513.837 367.609 515.25C367.314 518.056 366.977 521.262 366.829 524.827C366.32 533.164 366.263 541.523 366.66 549.866C367.153 560.078 368.167 570.259 369.698 580.368C371.28 591.126 373.263 601.294 375.267 610.491C377.271 619.688 379.275 627.936 380.983 634.855C382.692 641.774 384.189 647.321 385.202 651.161C385.708 652.996 386.109 654.472 386.425 655.569C386.553 656.086 386.715 656.593 386.911 657.088C386.868 656.56 386.776 656.038 386.636 655.527C386.383 654.388 386.025 652.911 385.603 651.055L381.721 634.581C380.097 627.641 378.157 619.393 376.237 610.196C374.317 600.998 372.335 590.852 370.752 580.115C369.17 569.378 368.095 559.021 367.652 549.718C367.209 540.416 367.166 531.873 367.652 524.785C367.652 521.241 368.031 518.035 368.263 515.208C368.369 513.816 368.474 512.508 368.559 511.285C368.643 510.061 368.833 509.006 368.938 507.994C369.149 506.116 369.297 504.598 369.423 503.459C369.478 502.954 369.5 502.447 369.487 501.94V501.94Z" fill="#263238"/>
<path d="M603.527 664.45C603.673 664.151 603.793 663.841 603.886 663.522C604.097 662.826 604.392 661.94 604.751 660.801L606.101 656.434C606.481 654.448 607.319 652.577 608.548 650.971C610.354 649.238 612.513 647.914 614.876 647.09C617.655 646.039 620.521 645.234 623.44 644.685C630.401 643.395 637.457 642.689 644.535 642.575H645.104V642.027L638.903 601.589C634.916 576.128 631.288 553.072 628.651 536.197C627.28 527.928 626.183 521.199 625.402 516.432C625.023 514.175 624.706 512.382 624.474 511.053C624.474 510.504 624.284 510.04 624.2 509.66C624.185 509.5 624.142 509.343 624.073 509.196C624.041 509.357 624.041 509.522 624.073 509.682C624.073 510.061 624.073 510.525 624.242 511.095C624.411 512.424 624.664 514.217 624.959 516.495C625.655 521.283 626.647 528.034 627.849 536.324C630.423 553.199 633.924 576.213 637.806 601.716C640.084 616.271 642.214 630.045 644.134 642.132L644.619 641.563C637.455 641.747 630.321 642.545 623.293 643.947C620.333 644.537 617.431 645.391 614.623 646.499C612.163 647.401 609.935 648.843 608.105 650.718C607.351 651.565 606.79 652.565 606.46 653.65L605.679 656.455C605.194 658.164 604.793 659.641 604.456 660.864C604.118 662.088 603.907 662.974 603.738 663.627C603.643 663.895 603.572 664.17 603.527 664.45V664.45Z" fill="#263238"/>
<path d="M698.135 681.663C698.068 680.702 697.884 679.753 697.587 678.836C696.924 676.294 696.034 673.816 694.929 671.432C691.332 663.465 685.724 656.571 678.657 651.427C671.589 646.282 663.305 643.065 654.618 642.09C652.015 641.772 649.389 641.687 646.771 641.837C645.804 641.848 644.842 641.969 643.902 642.196C647.427 642.215 650.949 642.434 654.449 642.85C662.939 644.02 671.007 647.271 677.937 652.313C684.867 657.355 690.443 664.031 694.17 671.749C695.668 674.98 696.991 678.29 698.135 681.663V681.663Z" fill="#263238"/>
<path d="M682.251 625.594C681.714 625.458 681.158 625.408 680.605 625.447C679.091 625.419 677.576 625.489 676.07 625.658C671.089 626.159 666.208 627.381 661.578 629.286C656.95 631.202 652.618 633.766 648.711 636.901C647.527 637.838 646.406 638.853 645.357 639.939C644.619 640.719 644.218 641.162 644.281 641.225C644.344 641.289 646.137 639.749 649.175 637.513C657.14 631.676 666.408 627.868 676.176 626.417C679.909 625.869 682.251 625.784 682.251 625.594Z" fill="#263238"/>
<path d="M611.164 479.897C611.302 478.897 611.351 477.888 611.311 476.88C611.311 474.939 611.438 472.155 611.691 468.717C612.324 459.745 613.865 450.862 616.29 442.201C618.749 433.554 622.063 425.173 626.183 417.183C627.786 414.125 629.136 411.678 630.127 410.032C630.683 409.191 631.163 408.301 631.562 407.375C630.889 408.124 630.288 408.937 629.769 409.8C628.651 411.404 627.195 413.787 625.55 416.825C616.771 432.757 611.79 450.501 610.995 468.674C610.847 472.134 610.868 475.003 610.995 476.88C610.951 477.889 611.008 478.899 611.164 479.897V479.897Z" fill="#263238"/>
<g opacity="0.3">
<path d="M372.609 596.421C355.1 566.741 354.721 528.181 370.014 497.278C365.096 530.203 366.153 563.745 373.136 596.295" fill="black"/>
</g>
<g opacity="0.3">
<path d="M528.495 629.982C541.784 633.884 560.136 634.834 573.152 629.982C563.005 644.389 543.451 649.6 526.491 644.917C509.531 640.234 493.879 623.253 492.572 605.681C500.777 616.777 515.185 626.143 528.495 629.982Z" fill="black"/>
</g>
<path d="M479.599 582.056C479.66 582.46 479.766 582.856 479.915 583.237C480.168 583.997 480.464 585.157 481.054 586.549C482.592 590.58 484.506 594.457 486.771 598.13C490.11 603.605 494.144 608.625 498.773 613.064C510.13 624.119 524.79 631.156 540.519 633.104C546.877 633.929 553.315 633.929 559.672 633.104C563.967 632.57 568.203 631.645 572.329 630.341C573.806 629.898 574.881 629.412 575.641 629.138C576.026 629.008 576.4 628.845 576.759 628.653C575.227 628.998 573.713 629.42 572.224 629.919C554.363 634.885 535.317 633.306 518.518 625.468C501.887 617.293 488.748 603.413 481.497 586.359C480.274 583.617 479.704 582.014 479.599 582.056Z" fill="#263238"/>
<path d="M627.764 729.737C627.764 729.737 627.912 729.969 628.292 730.306C628.823 730.835 629.394 731.321 630 731.762C632.207 733.408 634.655 734.703 637.257 735.601C641.126 736.887 645.163 737.598 649.238 737.71C654.167 737.867 659.1 737.69 664.004 737.183C674.551 736.276 683.917 734.736 690.689 733.534C694.085 732.922 696.827 732.395 698.704 731.994C699.704 731.858 700.687 731.618 701.636 731.277C700.632 731.292 699.63 731.391 698.641 731.572L690.562 732.753C683.77 733.787 674.362 735.179 663.899 736.086C658.994 736.593 654.063 736.797 649.133 736.698C645.14 736.614 641.179 735.975 637.362 734.799C633.927 733.602 630.692 731.896 627.764 729.737V729.737Z" fill="#263238"/>
<path d="M389.526 174.726L380.857 166.288C369.318 171.309 363.981 184.703 362.02 197.149C360.058 209.595 360.353 222.673 355.058 234.106C351.008 242.902 343.646 250.982 344.511 260.706C345.334 269.882 353.645 277.307 353.687 286.525C353.687 295.406 346.304 302.219 342.001 309.982C333.289 325.697 327.636 389.993 332.192 407.395C370.521 404.084 438.402 399.991 476.751 391.174C466.647 325.107 424.1 231.87 389.526 174.726Z" fill="#263238"/>
<path d="M372.377 233.621C369.719 188.711 402.331 147.62 447.789 142.199C496.032 136.461 538.705 171.013 542.713 218.011L554.02 407.733C554.226 411.4 553.202 415.03 551.109 418.048C539.971 434.333 519.805 447.074 501.769 449.584C484.324 452.01 466.626 447.475 451.776 439.206C449.313 437.813 447.258 435.798 445.818 433.362C444.378 430.926 443.603 428.155 443.57 425.326L442.79 382.863C442.793 382.826 442.788 382.789 442.776 382.754C442.763 382.72 442.743 382.688 442.717 382.662C442.69 382.636 442.659 382.616 442.624 382.603C442.59 382.59 442.552 382.586 442.516 382.589C438.542 382.888 434.548 382.775 430.597 382.251C419.375 379.509 390.75 368.498 381.131 326.478C377.925 312.556 374.719 273.004 372.377 233.621Z" fill="#FFBE9D"/>
<path d="M434.774 295.659C434.774 295.237 430.07 294.773 422.455 294.351C420.535 294.351 418.7 294.035 418.236 292.769C417.953 290.834 418.277 288.859 419.164 287.116L423.889 272.35C430.429 251.424 435.027 234.275 434.183 234.043C433.34 233.811 427.328 250.539 420.788 271.464C419.227 276.632 417.73 281.547 416.295 286.23C415.705 288.339 414.629 290.913 415.789 293.676C416.112 294.32 416.579 294.882 417.153 295.317C417.727 295.752 418.393 296.05 419.101 296.186C420.177 296.401 421.275 296.479 422.37 296.419C430.049 296.376 434.753 296.081 434.774 295.659Z" fill="#263238"/>
<path d="M384.78 249.505C385.603 250.412 390.581 246.235 397.711 246.024C404.841 245.813 410.157 249.547 410.916 248.577C411.296 248.134 410.431 246.467 408.11 244.738C405.045 242.534 401.337 241.407 397.563 241.531C393.794 241.661 390.178 243.05 387.29 245.476C385.076 247.374 384.253 249.104 384.78 249.505Z" fill="#263238"/>
<path d="M457.218 251.319C458.188 252.226 463.377 247.522 471.161 246.847C478.945 246.172 484.999 249.737 485.779 248.682C486.159 248.197 485.104 246.573 482.468 244.843C478.934 242.75 474.827 241.834 470.739 242.227C466.647 242.59 462.784 244.27 459.728 247.016C457.429 249.062 456.754 250.918 457.218 251.319Z" fill="#263238"/>
<path d="M442.789 382.567C442.789 382.567 471.857 382.884 506.62 359.005C506.62 359.005 497.634 397.355 443.021 396.152L442.789 382.567Z" fill="#EB996E"/>
<path d="M439.098 313.167C440.422 311.3 442.193 309.794 444.249 308.788C446.306 307.782 448.581 307.308 450.868 307.409C452.52 307.433 454.15 307.789 455.661 308.456C457.172 309.122 458.534 310.086 459.665 311.29C460.745 312.443 461.437 313.904 461.645 315.47C461.854 317.036 461.567 318.628 460.825 320.023C458.99 322.955 454.813 323.904 451.164 323.145C447.55 322.156 444.167 320.464 441.207 318.167C440.329 317.604 439.557 316.89 438.929 316.057C438.632 315.668 438.458 315.2 438.428 314.712C438.398 314.223 438.514 313.737 438.76 313.315" fill="#EB996E"/>
<path d="M457.133 299.182C455.91 299.182 456.395 307.198 449.813 313.357C443.232 319.517 434.52 319.221 434.52 320.339C434.52 320.867 436.629 321.774 440.215 321.605C444.97 321.341 449.486 319.441 452.999 316.226C456.344 313.167 458.358 308.919 458.61 304.392C458.715 301.038 457.682 299.182 457.133 299.182Z" fill="#263238"/>
<path d="M455.973 221.914C456.859 223.854 464.263 222.357 473.102 222.715C481.94 223.074 489.218 224.825 490.272 223.032C490.715 222.125 489.365 220.353 486.349 218.623C482.338 216.534 477.908 215.373 473.388 215.227C468.867 215.081 464.372 215.953 460.234 217.779C457.176 219.298 455.678 220.985 455.973 221.914Z" fill="#263238"/>
<path d="M383.24 223.496C384.759 225.183 390.771 223.496 398.006 223.496C405.241 223.496 411.316 224.698 412.772 222.947C413.405 222.104 412.455 220.416 409.798 218.729C406.118 216.8 402.01 215.835 397.856 215.924C393.703 216.012 389.64 217.151 386.045 219.235C383.43 220.943 382.565 222.673 383.24 223.496Z" fill="#263238"/>
<path d="M441.207 132.706C445.131 126.04 452.408 123.003 460.551 121.779C493.795 116.738 530.879 136.756 549.505 164.727C568.131 192.698 569.123 234.443 555.496 265.157L534.76 252.205C493.141 235.034 463.757 194.934 436.988 153.505C433.255 147.873 437.727 138.507 441.207 132.706Z" fill="#263238"/>
<path d="M389.99 150.995C403.892 135.174 413.996 119.353 442.853 130.407C447.071 138.486 438.634 148.97 431.377 155.087C420.83 164.073 411.781 170.127 404.904 176.561C391.024 189.534 375.245 233.178 373.874 256.993C373.874 258.491 371.238 236.553 369.656 236.321C367.715 236.026 359.889 226.449 360.965 213.37C364.677 168.672 376.089 166.794 389.99 150.995Z" fill="#263238"/>
<path d="M460.466 121.779C458.299 121.356 456.056 121.546 453.99 122.328C448.884 123.894 444.331 126.887 440.87 130.955C439.881 132.099 439.005 133.335 438.254 134.647C437.599 135.914 437.089 137.252 436.735 138.634C435.982 140.862 435.411 143.148 435.027 145.468C434.457 149.539 435.427 152.007 435.638 151.944C435.849 151.881 435.533 149.455 436.419 145.721C437.004 143.512 437.709 141.336 438.528 139.203C438.903 137.956 439.398 136.748 440.005 135.596C440.718 134.387 441.537 133.244 442.452 132.179C445.718 128.395 449.85 125.457 454.497 123.615C458.083 122.328 460.508 122.117 460.466 121.779Z" fill="#455A64"/>
<path d="M391.362 263.322C391.359 264.94 391.976 266.497 393.087 267.674C394.197 268.851 395.716 269.558 397.331 269.65C398.134 269.725 398.943 269.639 399.711 269.398C400.48 269.156 401.193 268.763 401.808 268.243C402.422 267.722 402.927 267.084 403.292 266.366C403.658 265.648 403.876 264.864 403.934 264.06C403.975 262.417 403.375 260.822 402.26 259.613C401.146 258.404 399.605 257.677 397.964 257.584C397.15 257.506 396.328 257.595 395.549 257.844C394.769 258.094 394.049 258.499 393.431 259.036C392.814 259.573 392.312 260.229 391.956 260.966C391.6 261.703 391.398 262.504 391.362 263.322V263.322Z" fill="#263238"/>
<path d="M460.846 263.659C460.805 265.302 461.405 266.897 462.52 268.106C463.634 269.315 465.175 270.042 466.816 270.135C467.617 270.213 468.426 270.13 469.194 269.891C469.963 269.652 470.676 269.261 471.291 268.742C471.906 268.223 472.411 267.586 472.777 266.869C473.142 266.152 473.36 265.369 473.418 264.566C473.465 262.919 472.867 261.319 471.752 260.106C470.638 258.892 469.094 258.162 467.449 258.069C466.646 257.991 465.836 258.075 465.066 258.315C464.296 258.556 463.582 258.948 462.967 259.469C462.351 259.991 461.846 260.63 461.482 261.349C461.118 262.069 460.902 262.854 460.846 263.659V263.659Z" fill="#263238"/>
<path d="M652.044 316.458C648.121 310.003 643.607 303.928 636.435 301.249C629.263 298.57 621.12 297.03 615.488 291.799C606.65 283.678 607.05 270.177 607.852 258.407C608.654 246.636 608.865 233.094 599.836 225.183C592.284 218.581 580.282 217.99 573.743 210.417C569.376 205.376 568.511 198.415 566.992 191.981C562.774 174.747 553.344 144.645 502.549 127.327L547.48 298.064C544.126 299.013 536.11 306.649 535.667 311.817C535.267 316.648 537.355 321.542 537.397 326.394C537.397 332.321 530.942 335.865 526.85 340.252C521.661 345.842 520.058 353.9 520.859 361.347C522.523 371.524 525.245 381.499 528.981 391.111C570.663 386.892 631.499 385.542 663.267 358.963C669.025 354.154 660.777 330.823 652.044 316.458Z" fill="#263238"/>
<path d="M534.676 252.205C535.456 251.783 566.149 239.548 568.11 271.928C570.072 304.308 537.228 299.498 537.123 298.591C537.017 297.684 534.676 252.205 534.676 252.205Z" fill="#FFBE9D"/>
<path d="M546.236 285.766C546.384 285.639 546.827 286.125 547.818 286.483C549.19 286.985 550.703 286.932 552.037 286.336C555.37 284.859 557.922 279.269 557.732 273.447C557.625 270.673 556.905 267.957 555.623 265.494C555.255 264.505 554.655 263.619 553.873 262.911C553.091 262.202 552.15 261.692 551.13 261.423C550.472 261.292 549.789 261.395 549.199 261.715C548.61 262.035 548.151 262.551 547.902 263.174C547.523 264.102 547.776 264.735 547.607 264.798C547.438 264.862 546.869 264.292 547.059 262.942C547.18 262.127 547.583 261.381 548.198 260.833C549.043 260.104 550.143 259.74 551.256 259.82C552.598 259.998 553.872 260.519 554.954 261.332C556.036 262.144 556.892 263.222 557.437 264.461C558.979 267.181 559.833 270.237 559.926 273.363C560.116 279.881 557.163 286.167 552.564 287.791C551.715 288.1 550.806 288.211 549.906 288.116C549.007 288.021 548.141 287.722 547.375 287.243C546.341 286.525 546.131 285.829 546.236 285.766Z" fill="#EB996E"/>
<path d="M419.818 260.664C419.646 258.23 419.301 255.812 418.784 253.428C417.808 249.439 416.011 245.697 413.508 242.442C411.004 239.186 407.849 236.489 404.244 234.522C400.639 232.554 396.664 231.361 392.571 231.017C388.479 230.673 384.36 231.186 380.477 232.524C377.803 233.426 375.284 234.735 373.01 236.405C370.58 238.085 368.442 240.151 366.681 242.523C362.901 247.472 360.808 253.503 360.71 259.73C360.611 265.956 362.512 272.051 366.133 277.117C367.805 279.539 369.856 281.676 372.208 283.446C374.424 285.192 376.902 286.581 379.549 287.559C384.443 289.444 389.753 289.983 394.926 289.12C399.438 288.375 403.709 286.576 407.393 283.867C412.787 279.944 416.702 274.319 418.51 267.899C419.092 265.525 419.515 263.115 419.775 260.685C419.784 260.846 419.784 261.008 419.775 261.17C419.775 261.571 419.775 262.035 419.775 262.604C419.757 263.376 419.68 264.144 419.543 264.904C419.428 265.951 419.23 266.988 418.953 268.005C417.26 274.609 413.35 280.432 407.878 284.5C403.826 287.533 399.073 289.49 394.06 290.191C389.048 290.892 383.94 290.313 379.211 288.508C373.598 286.387 368.744 282.641 365.268 277.75C361.507 272.501 359.532 266.183 359.634 259.726C359.737 253.269 361.911 247.017 365.837 241.89C367.665 239.445 369.873 237.308 372.377 235.562C374.715 233.883 377.297 232.574 380.034 231.68C384.816 230.028 389.939 229.612 394.926 230.471C399.912 231.33 404.6 233.437 408.553 236.595C413.905 240.84 417.63 246.8 419.1 253.471C419.342 254.498 419.511 255.541 419.607 256.593C419.71 257.362 419.759 258.137 419.754 258.913C419.754 259.483 419.754 259.947 419.754 260.326C419.78 260.438 419.801 260.55 419.818 260.664V260.664Z" fill="#455A64"/>
<path d="M501.326 261.972C501.157 259.539 500.818 257.122 500.313 254.736C498.727 248.266 495.012 242.516 489.766 238.409C486.167 235.587 481.954 233.65 477.468 232.756C472.324 231.739 467.001 232.111 462.048 233.832C459.378 234.743 456.86 236.051 454.581 237.713C452.156 239.398 450.019 241.464 448.253 243.831C444.478 248.777 442.386 254.802 442.283 261.024C442.181 267.245 444.073 273.336 447.683 278.404C449.365 280.825 451.423 282.962 453.779 284.732C455.995 286.48 458.472 287.868 461.12 288.846C466.014 290.731 471.324 291.27 476.498 290.407C481.003 289.663 485.268 287.863 488.943 285.154C494.341 281.231 498.264 275.607 500.081 269.186C500.663 266.813 501.078 264.402 501.326 261.972C501.348 262.133 501.348 262.296 501.326 262.457C501.326 262.837 501.326 263.322 501.326 263.891C501.327 264.663 501.256 265.432 501.115 266.191C501.001 267.24 500.797 268.278 500.503 269.291C498.827 275.904 494.914 281.733 489.429 285.787C485.697 288.589 481.363 290.482 476.772 291.314C471.437 292.233 465.952 291.709 460.888 289.795C455.266 287.69 450.408 283.941 446.945 279.037C443.183 273.788 441.208 267.469 441.311 261.013C441.414 254.556 443.588 248.304 447.514 243.177C451.143 238.395 456.115 234.804 461.795 232.862C466.919 231.111 472.42 230.768 477.721 231.87C483.368 233.031 488.56 235.796 492.676 239.832C496.791 243.869 499.655 249.008 500.925 254.631C501.187 255.654 501.356 256.699 501.431 257.753C501.556 258.52 501.606 259.297 501.579 260.073V261.487C501.531 261.665 501.444 261.83 501.326 261.972V261.972Z" fill="#455A64"/>
<path d="M443.106 259.757C442.937 259.862 442.093 258.491 440.131 256.909C437.617 254.823 434.467 253.656 431.201 253.598C427.934 253.541 424.746 254.597 422.159 256.593C420.05 258.09 419.248 259.44 419.1 259.314C419.625 257.981 420.517 256.825 421.674 255.981C424.316 253.668 427.725 252.423 431.236 252.49C434.746 252.556 438.106 253.929 440.659 256.339C441.779 257.226 442.627 258.411 443.106 259.757V259.757Z" fill="#455A64"/>
<path d="M542.101 250.138C540.159 250.753 538.158 251.163 536.131 251.361C532.397 251.952 527.229 252.5 521.534 253.007L506.916 254.314C504.912 254.623 502.888 254.778 500.862 254.778C502.803 254.157 504.804 253.74 506.831 253.534C510.544 252.964 515.712 252.416 521.428 251.91L536.026 250.602C538.035 250.28 540.066 250.125 542.101 250.138V250.138Z" fill="#455A64"/>
<path d="M372.735 278.91C370.103 275.868 367.967 272.43 366.407 268.722C365.182 264.882 364.562 260.876 364.572 256.846C364.102 257.981 363.886 259.204 363.939 260.432C363.863 263.386 364.35 266.328 365.373 269.101C366.394 271.875 367.941 274.425 369.93 276.611C371.469 278.256 372.651 279.016 372.735 278.91Z" fill="white"/>
<path d="M367.63 245.581C367.462 245.328 366.259 245.94 365.521 247.374C364.783 248.809 365.099 250.117 365.394 250.096C365.69 250.074 365.943 248.999 366.512 247.838C367.082 246.678 367.82 245.813 367.63 245.581Z" fill="white"/>
<path d="M447.197 272.519C447.366 272.519 446.776 270.831 446.29 268.11C445.047 260.973 446.417 253.626 450.151 247.417C451.564 245.054 452.703 243.746 452.577 243.62C451.334 244.527 450.286 245.674 449.497 246.995C447.378 250.062 445.922 253.537 445.222 257.198C444.521 260.858 444.59 264.625 445.426 268.258C445.723 269.783 446.325 271.233 447.197 272.519Z" fill="white"/>
<path d="M559.335 298.148C559.335 298.148 559.778 298.781 560.411 299.941C561.318 301.589 561.797 303.439 561.803 305.32C561.837 306.684 561.588 308.041 561.073 309.304C560.557 310.567 559.786 311.71 558.808 312.661C557.627 313.834 556.187 314.711 554.603 315.221C553.019 315.73 551.337 315.858 549.695 315.593C548.063 315.257 546.532 314.547 545.221 313.518C543.911 312.49 542.857 311.171 542.143 309.666C541.566 308.429 541.248 307.088 541.208 305.724C541.169 304.36 541.408 303.002 541.911 301.734C542.576 299.979 543.663 298.414 545.075 297.178C546.088 296.313 546.763 295.954 546.721 295.87C546.024 296.049 545.375 296.38 544.822 296.84C543.213 298.011 541.957 299.602 541.194 301.439C540.583 302.799 540.267 304.272 540.267 305.763C540.267 307.254 540.583 308.728 541.194 310.088C541.92 311.783 543.055 313.271 544.498 314.419C545.942 315.567 547.647 316.339 549.462 316.665C551.277 316.992 553.145 316.862 554.898 316.288C556.65 315.715 558.233 314.715 559.504 313.378C560.555 312.324 561.371 311.059 561.898 309.666C562.425 308.274 562.652 306.785 562.562 305.299C562.489 303.313 561.869 301.386 560.769 299.73C560.031 298.57 559.335 298.106 559.335 298.148Z" fill="#E0E0E0"/>
<path d="M381.152 323.04C379.367 323.754 377.399 323.872 375.541 323.377C373.554 322.821 371.763 321.717 370.373 320.192C368.66 318.342 367.504 316.046 367.04 313.568C366.557 311.089 366.867 308.521 367.926 306.227C368.795 304.347 370.087 302.694 371.702 301.397C373.26 300.257 374.963 299.328 376.764 298.634C376.228 298.586 375.687 298.658 375.182 298.844C373.756 299.24 372.412 299.891 371.217 300.764C369.425 302.081 367.978 303.81 366.998 305.806C365.793 308.272 365.423 311.063 365.943 313.758C366.459 316.452 367.749 318.937 369.656 320.909C371.203 322.523 373.191 323.645 375.372 324.137C376.834 324.481 378.363 324.401 379.781 323.904C380.772 323.504 381.194 323.082 381.152 323.04Z" fill="#E0E0E0"/>
<path d="M498.161 741.887L466.879 751.147C466.879 751.147 449.624 758.551 441.228 760.471C430.808 762.855 423.699 759.627 423.319 753.826C422.939 748.025 431.04 747.287 431.04 747.287C437.924 744.664 444.62 741.57 451.079 738.027C455.77 734.769 459.605 730.427 462.259 725.37L451.079 726.91C451.079 726.91 427.559 743.785 418.699 748.89C409.84 753.995 407.899 745.03 407.14 742.33C406.38 739.63 433.339 712.271 433.339 712.271C433.339 712.271 407.519 728.851 402.9 732.985C398.28 737.12 391.319 738.47 389.779 735.791C388.239 733.112 383.999 733.091 389.779 721.658C395.559 710.225 441.819 679.469 441.819 679.469L429.162 676.769L415.282 682.95C414.316 687.712 412.345 692.214 409.502 696.155C404.503 703.58 395.622 696.155 395.622 696.155L401.128 667.677L428.55 650.507C428.55 650.507 457.07 653.987 461.31 655.907C465.55 657.826 470.191 665.905 470.191 665.905L477.89 669.027C489.85 672.487 489.45 684.447 493.31 684.827C497.17 685.207 609.687 663.269 609.687 663.269L619.875 660.611C636.751 673.415 643.48 694.573 646.454 713.346C646.454 713.346 649.555 722.544 646.454 727.606L498.161 741.887Z" fill="#FFBE9D"/>
<path d="M518.813 721.869C518.946 721.266 518.981 720.647 518.918 720.033C518.926 719.326 518.862 718.619 518.728 717.924C518.63 716.967 518.446 716.021 518.18 715.097C516.596 709.771 513.916 704.835 510.312 700.606C506.812 696.354 502.913 692.448 498.668 688.94C496.985 687.406 495.155 686.043 493.204 684.869C494.765 686.485 496.42 688.006 498.161 689.426C502.219 693.061 505.998 696.996 509.468 701.196C512.971 705.335 515.668 710.093 517.42 715.224C518.665 719.253 518.581 721.89 518.813 721.869Z" fill="#EB996E"/>
<path d="M470.085 665.906C470.085 665.906 471.013 666.391 472.448 667.551C474.447 669.239 476.176 671.224 477.574 673.436C478.583 674.932 479.444 676.521 480.147 678.183C480.796 680.137 481.207 682.163 481.371 684.215C481.661 686.603 482.514 688.888 483.86 690.881C485.386 692.811 486.643 694.94 487.593 697.21C489.038 701.044 489.038 705.272 487.593 709.107L487.446 709.507L487.804 709.739C492.695 712.898 496.236 717.763 497.74 723.387C498.258 725.605 498.576 727.864 498.689 730.138C498.86 729.549 498.932 728.936 498.9 728.324C498.923 726.613 498.739 724.906 498.351 723.24C497.006 717.331 493.422 712.174 488.353 708.854L488.564 709.486C490.091 705.406 490.091 700.911 488.564 696.83C487.59 694.495 486.283 692.313 484.682 690.354C483.399 688.464 482.589 686.294 482.32 684.026C482.066 680.005 480.594 676.157 478.101 672.993C476.612 670.751 474.742 668.788 472.574 667.192C471.991 666.753 471.353 666.392 470.676 666.117C470.489 666.021 470.29 665.951 470.085 665.906V665.906Z" fill="#EB996E"/>
<path d="M443 678.52C445.699 678.87 448.443 678.578 451.008 677.669C453.574 676.76 455.889 675.26 457.766 673.289C457.555 673.035 454.729 675.208 450.657 676.621C446.586 678.035 443 678.204 443 678.52Z" fill="#EB996E"/>
<path d="M435.786 709.676C439.859 708.533 443.82 707.022 447.62 705.162C451.567 703.646 455.378 701.797 459.011 699.635C454.948 700.809 450.989 702.319 447.177 704.149C443.23 705.665 439.419 707.514 435.786 709.676V709.676Z" fill="#EB996E"/>
<path d="M461.162 725.075C465.258 723.687 469.26 722.038 473.144 720.139C470.942 720.236 468.786 720.797 466.816 721.784C464.714 722.455 462.784 723.578 461.162 725.075Z" fill="#EB996E"/>
<path d="M439.667 711.68C441.483 712.654 443.081 713.989 444.361 715.604C445.642 717.218 446.579 719.077 447.114 721.067C447.261 721.067 447.388 720.329 447.114 719.147C446.815 717.6 446.15 716.147 445.174 714.91C444.197 713.673 442.938 712.688 441.503 712.039C440.469 711.596 439.71 711.553 439.667 711.68Z" fill="#EB996E"/>
<path d="M428.361 694.573C428.234 694.868 430.301 695.923 431.693 698.285C432.402 699.784 432.995 701.336 433.465 702.926C433.765 702.055 433.844 701.124 433.697 700.215C433.55 699.306 433.18 698.447 432.622 697.716C431.018 695.016 428.403 694.277 428.361 694.573Z" fill="#EB996E"/>
<path d="M431.546 663.585C431.651 663.585 432.073 663.1 432.389 662.087C432.769 660.707 432.769 659.249 432.389 657.869C432.022 656.505 431.293 655.266 430.28 654.283C429.521 653.544 428.888 653.291 428.825 653.397C429.831 654.87 430.646 656.465 431.25 658.143C431.564 659.939 431.663 661.766 431.546 663.585V663.585Z" fill="#EB996E"/>
<path d="M203.495 673.288C203.495 673.288 204.909 645.613 233.597 639.875C262.285 634.138 312.532 658.522 312.532 658.522L453.315 756.632L449.096 768.761L306.203 748.848L293.125 753.868L192.758 687.928L98.0452 619.456L108.592 611.208C108.592 611.208 135.129 629.497 152.679 637.365C170.23 645.233 195.606 659.029 203.495 673.288Z" fill="#F5F5F5"/>
<path d="M455.488 772.769L336.348 698.749L210.394 678.52C210.394 678.52 204.066 687.675 193.371 685.439L89.7983 613.718L87.8365 618.043L288.696 759.163C291.646 760.241 294.833 760.492 297.915 759.89C300.997 759.288 303.856 757.855 306.183 755.746L455.488 772.769Z" fill="#455A64"/>
<path d="M210.394 678.52C210.679 678.83 211.006 679.1 211.364 679.321L214.275 681.431C216.807 683.245 220.456 685.882 224.822 689.215C233.766 695.859 245.917 705.331 259.037 716.068C272.158 726.805 283.95 736.782 292.387 744.06L302.449 752.708L305.191 755.029C305.488 755.323 305.821 755.578 306.183 755.788C306.183 755.788 305.93 755.451 305.339 754.881L302.744 752.392C300.466 750.283 297.155 747.203 292.978 743.511C284.667 736.086 273.002 726.045 259.818 715.266C246.634 704.487 234.505 695.121 225.371 688.624C220.857 685.354 217.123 682.823 214.507 681.114L211.491 679.174C211.146 678.923 210.779 678.704 210.394 678.52Z" fill="#263238"/>
<path d="M211.681 663.121C223.093 650.865 241.065 646.499 257.772 647.807C274.478 649.115 290.32 655.337 305.909 661.518L451.649 761.273L450.341 765.027L303.82 665.884C303.82 665.884 271.082 655.337 256.59 653.523C232.374 650.507 211.681 663.121 211.681 663.121Z" fill="#E0E0E0"/>
<path d="M188.814 676.242L118.739 628.969C118.739 628.969 176.158 658.839 188.814 676.242Z" fill="#E0E0E0"/>
<path d="M451.649 761.273C451.47 761.09 451.272 760.928 451.058 760.787L449.244 759.501L442.262 754.586L416.443 736.698L331.011 678.035L306.204 661.159C292.089 654.791 277.194 650.315 261.906 647.849C249.557 646.105 236.966 647.881 225.582 652.975C221.324 654.955 217.403 657.588 213.959 660.78C211.383 663.18 209.192 665.962 207.462 669.027C206.374 670.949 205.524 672.996 204.93 675.124C204.783 675.82 204.656 676.368 204.551 676.79C204.504 676.978 204.469 677.168 204.445 677.36C205.204 674.514 206.324 671.778 207.778 669.217C209.551 666.231 211.754 663.523 214.317 661.18C217.771 658.087 221.667 655.528 225.877 653.586C237.152 648.685 249.569 647.02 261.737 648.777C276.902 651.262 291.679 655.708 305.698 662.003H305.592L330.399 678.878L415.894 737.331L441.924 754.944L449.012 759.669L450.889 760.893C451.129 761.045 451.383 761.173 451.649 761.273V761.273Z" fill="#263238"/>
<path d="M324.071 685.861C323.739 685.585 323.369 685.358 322.974 685.186C322.236 684.785 321.139 684.173 319.725 683.456C316.878 681.979 312.722 679.912 307.491 677.55C293.926 671.191 279.531 666.781 264.733 664.45C249.856 662.205 234.657 663.594 220.435 668.5C216.161 670.042 212.054 672.014 208.179 674.385C206.787 675.187 205.795 675.968 205.099 676.495C204.731 676.722 204.385 676.983 204.066 677.275C204.066 677.275 205.605 676.389 208.39 674.807C212.314 672.604 216.43 670.761 220.688 669.302C234.845 664.658 249.893 663.394 264.627 665.61C279.319 667.934 293.64 672.189 307.217 678.267C312.469 680.545 316.667 682.486 319.578 683.857L322.911 685.397C323.281 685.589 323.67 685.745 324.071 685.861V685.861Z" fill="#263238"/>
<path d="M101.801 616.482C101.801 616.482 102.096 616.756 102.708 617.178L105.429 618.992L115.533 625.489C124.097 630.973 135.889 638.546 148.82 647.068C161.751 655.59 173.31 663.416 181.748 669.112L191.725 675.82L194.468 677.613C194.774 677.837 195.107 678.021 195.459 678.161C195.198 677.885 194.908 677.638 194.594 677.423L191.957 675.461C189.679 673.774 186.346 671.39 182.191 668.458C173.88 662.615 162.32 654.662 149.368 646.14C136.416 637.618 124.54 630.151 115.892 624.835C111.567 622.177 108.044 620.068 105.598 618.633L102.75 616.988C102.45 616.79 102.132 616.621 101.801 616.482Z" fill="#263238"/>
<path d="M165.547 692.337C166.978 695.78 168.797 699.05 170.968 702.082C173.668 705.289 182.486 709.761 183.182 715.857C183.878 721.953 182.444 736.255 191.978 747.14C198.124 753.91 205.902 758.994 214.57 761.905L252.181 758.235L312.258 734.588C313.6 734.249 314.756 733.395 315.474 732.211C316.192 731.027 316.416 729.608 316.097 728.26C315.724 726.795 314.923 725.474 313.796 724.467C312.668 723.46 311.266 722.812 309.768 722.607L308.334 722.375C308.334 722.375 311.793 719.548 306.836 714.591C302.617 710.372 293.61 712.756 288.97 714.296C284.329 715.836 257.117 727.205 252.244 728.956C247.92 730.496 244.587 731.867 244.587 731.867C244.587 731.867 279.414 708.368 279.899 705.288C280.469 701.597 280.089 699.909 276.524 697.336C272.305 694.277 265.386 697.547 258.678 700.374C253.679 702.483 221.805 718.219 221.805 718.219C221.805 718.219 220.371 716.827 221.805 714C223.24 711.174 233.829 697.547 235.496 695.016C237.162 692.484 237.605 691.05 235.939 688.919C233.618 685.903 227.501 684.468 221.869 689.615C218.304 692.906 205.626 701.428 205.626 701.428L147.111 658.734C147.111 658.734 139.833 658.544 142.364 668.69C144.896 678.836 165.547 692.337 165.547 692.337Z" fill="#FFBE9D"/>
<path d="M209.17 727.923C211.511 727.403 213.692 726.326 215.528 724.783C217.364 723.241 218.801 721.279 219.718 719.063C219.443 718.894 217.735 721.51 214.824 723.936C211.913 726.362 209.023 727.606 209.17 727.923Z" fill="#EB996E"/>
<path d="M204.361 702.462C204.361 702.335 203.58 702.103 202.252 702.272C200.594 702.513 199.034 703.205 197.743 704.273C196.452 705.34 195.479 706.743 194.932 708.326C194.531 709.55 194.594 710.436 194.742 710.436C195.626 708.466 196.887 706.689 198.455 705.204C200.227 703.915 202.233 702.984 204.361 702.462Z" fill="#EB996E"/>
<path d="M201.598 714.211C201.914 714.211 202.062 711.068 203.306 707.482C204.551 703.896 206.302 701.259 206.049 701.154C204.195 702.734 202.876 704.849 202.273 707.208C201.33 709.417 201.094 711.863 201.598 714.211V714.211Z" fill="#EB996E"/>
<path d="M166.982 689.299C166.982 689.405 167.72 688.983 168.479 687.97C169.442 686.626 170.044 685.057 170.229 683.414C170.414 681.771 170.174 680.108 169.534 678.583C169.028 677.444 168.458 676.875 168.353 676.959C169.104 678.98 169.372 681.149 169.134 683.292C168.896 685.435 168.159 687.492 166.982 689.299V689.299Z" fill="#EB996E"/>
<path d="M219.865 742.646C221.219 742.956 222.625 742.956 223.979 742.646C227.257 742.066 230.402 740.894 233.26 739.187C236.105 737.515 238.783 735.572 241.255 733.386C242.355 732.579 243.329 731.612 244.145 730.517C242.931 731.127 241.797 731.885 240.77 732.774C238.198 734.759 235.507 736.584 232.712 738.238C229.944 739.878 226.952 741.107 223.831 741.887C221.426 742.393 219.865 742.478 219.865 742.646Z" fill="#EB996E"/>
<path d="M210.077 736.613C209.782 736.613 209.761 738.723 211.533 740.474C213.305 742.225 215.456 742.14 215.414 741.845C215.372 741.549 213.748 741.128 212.313 739.735C210.879 738.343 210.394 736.571 210.077 736.613Z" fill="#EB996E"/>
<path d="M195.712 726.066C195.586 726.066 195.586 726.636 195.987 727.395C196.541 728.331 197.374 729.069 198.37 729.505C199.359 729.985 200.471 730.147 201.556 729.969C202.399 729.8 202.821 729.463 202.758 729.336C202.695 729.209 200.817 729.505 198.834 728.513C196.851 727.522 196.008 725.961 195.712 726.066Z" fill="#EB996E"/>
<path d="M246.381 750.008C246.486 750.283 260.472 744.461 277.6 736.972C294.729 729.484 308.524 723.176 308.314 722.923C308.103 722.67 294.201 728.492 277.073 735.981C259.944 743.469 246.254 749.734 246.381 750.008Z" fill="#EB996E"/>
<path d="M-2.28504e-05 768.824C-2.28504e-05 769.12 212.672 769.373 474.937 769.373C737.202 769.373 949.917 769.12 949.917 768.824C949.917 768.529 737.286 768.276 474.937 768.276C212.588 768.276 -2.28504e-05 768.508 -2.28504e-05 768.824Z" fill="#263238"/>
<path d="M922.747 544.107L876.972 768.824H479.662C477.558 768.824 475.541 767.989 474.054 766.501C472.566 765.014 471.731 762.996 471.731 760.893V760.893C471.728 759.85 471.931 758.816 472.328 757.851C472.726 756.886 473.309 756.01 474.046 755.271C474.783 754.532 475.658 753.946 476.622 753.546C477.586 753.146 478.619 752.94 479.662 752.94H559.651L602.093 543.875C602.486 541.924 603.54 540.168 605.077 538.904C606.614 537.64 608.541 536.944 610.531 536.935L914.14 533.687C915.436 533.673 916.718 533.95 917.893 534.496C919.068 535.042 920.106 535.844 920.931 536.843C921.756 537.842 922.347 539.012 922.661 540.269C922.976 541.526 923.005 542.837 922.747 544.107V544.107Z" fill="#E0E0E0"/>
<path d="M922.747 544.107L922.874 543.432C922.959 542.732 922.959 542.023 922.874 541.323C922.724 539.978 922.265 538.686 921.533 537.548C920.801 536.41 919.816 535.457 918.655 534.762C917.848 534.266 916.964 533.91 916.039 533.708C915.008 533.536 913.962 533.473 912.917 533.518H905.766L887.878 533.665L773.062 534.741L693.031 535.564L648.184 536.007L624.685 536.26L612.661 536.387C611.628 536.387 610.679 536.387 609.582 536.387C608.51 536.507 607.468 536.814 606.502 537.294C604.555 538.243 603.013 539.86 602.156 541.85C601.761 542.835 601.478 543.861 601.313 544.909L600.701 547.925C600.3 550.035 599.878 551.975 599.456 554C598.641 558.064 597.811 562.157 596.967 566.277C595.294 574.504 593.599 582.836 591.884 591.274C588.452 608.149 584.937 625.397 581.336 643.018C574.185 678.245 566.718 714.886 559.061 752.708L559.588 752.286H480.928C479.89 752.247 478.852 752.311 477.827 752.476C475.716 752.93 473.858 754.175 472.638 755.957C471.403 757.733 470.897 759.915 471.224 762.053C471.416 763.348 471.907 764.581 472.657 765.653C473.408 766.726 474.398 767.609 475.549 768.234C476.708 768.851 477.991 769.197 479.304 769.246H690.436H876.972H877.31V768.909C891.317 699.825 902.623 643.651 910.576 604.711C914.499 585.262 917.537 570.116 919.604 559.822C920.617 554.675 921.39 550.773 921.924 548.115C922.452 545.457 922.684 544.107 922.684 544.107C922.684 544.107 922.367 545.457 921.819 548.073C921.27 550.688 920.427 554.654 919.372 559.759C917.263 570.053 914.119 585.178 910.112 604.626C902.138 643.545 890.642 699.698 876.487 768.74L876.909 768.402L690.373 768.297H479.388C478.254 768.252 477.145 767.957 476.139 767.432C475.141 766.883 474.282 766.113 473.628 765.18C472.973 764.248 472.541 763.178 472.364 762.053C472.091 760.184 472.528 758.28 473.587 756.716C474.667 755.177 476.285 754.1 478.122 753.7C479.071 753.556 480.032 753.5 480.991 753.531H560.095V753.109C567.752 715.329 575.198 678.688 582.328 643.419C585.914 625.784 589.43 608.529 592.875 591.654L597.938 566.657C598.76 562.543 599.604 558.451 600.427 554.401C600.828 552.292 601.249 550.33 601.65 548.326L602.262 545.288C602.42 544.309 602.674 543.348 603.021 542.42C603.602 541.088 604.524 539.934 605.695 539.074C606.865 538.215 608.243 537.68 609.687 537.526C610.615 537.526 611.67 537.526 612.661 537.526L624.685 537.378L648.205 537.125L693.031 536.598L773.083 535.648L887.899 534.235L905.766 534.003L912.917 533.897C913.947 533.834 914.98 533.891 915.997 534.066C916.903 534.253 917.773 534.588 918.57 535.058C919.708 535.722 920.68 536.638 921.411 537.734C922.142 538.831 922.613 540.08 922.789 541.386C922.873 542.292 922.859 543.204 922.747 544.107V544.107Z" fill="#263238"/>
<path d="M752.791 660.062C745.544 660.062 739.67 654.188 739.67 646.942C739.67 639.695 745.544 633.821 752.791 633.821C760.037 633.821 765.911 639.695 765.911 646.942C765.911 654.188 760.037 660.062 752.791 660.062Z" fill="white"/>
<path d="M922.367 545.985C922.367 545.985 921.903 545.985 920.996 545.985H901.547L844.741 546.259L657.318 547.567L630.212 547.799H623.546C622.41 547.756 621.272 547.827 620.15 548.01C618.434 548.359 616.847 549.176 615.566 550.371C614.286 551.566 613.361 553.093 612.894 554.781C612.387 556.89 612.029 559 611.586 561.109L601.903 609.921C595.765 641.035 590.217 668.985 585.577 692.59C580.936 716.194 577.139 735.137 574.65 748.321C573.384 754.881 572.414 759.986 571.739 763.487C571.422 765.196 571.169 766.525 571 767.453C570.832 768.381 570.789 768.803 570.789 768.803C570.789 768.803 570.916 768.36 571.106 767.474C571.296 766.588 571.591 765.238 571.95 763.53L575.072 748.489C577.73 735.306 581.569 716.3 586.336 692.822C591.103 669.344 596.672 641.288 602.895 610.196C605.996 594.649 609.223 578.322 612.641 561.405C613.083 559.295 613.463 557.186 613.927 555.076C614.484 553.072 615.761 551.345 617.513 550.225C618.382 549.668 619.348 549.282 620.361 549.085C621.42 548.913 622.495 548.849 623.567 548.896H630.212L657.318 548.685L844.741 547.039L901.547 546.407L916.988 545.985H921.017H922.367Z" fill="#263238"/>
<defs>
<filter id="filter0_b_137_2" x="53" y="-100" width="1200" height="1107" filterUnits="userSpaceOnUse" color-interpolation-filters="sRGB">
<feFlood flood-opacity="0" result="BackgroundImageFix"/>
<feGaussianBlur in="BackgroundImageFix" stdDeviation="50"/>
<feComposite in2="SourceAlpha" operator="in" result="effect1_backgroundBlur_137_2"/>
<feBlend mode="normal" in="SourceGraphic" in2="effect1_backgroundBlur_137_2" result="shape"/>
</filter>
<linearGradient id="paint0_linear_137_2" x1="402.211" y1="-41.4256" x2="1269.93" y2="740.42" gradientUnits="userSpaceOnUse">
<stop stop-color="#FF6E7F"/>
<stop offset="0.510417" stop-color="#1C009C"/>
<stop offset="1" stop-color="#BFE9FF"/>
</linearGradient>
<linearGradient id="paint1_linear_137_2" x1="307.762" y1="226.75" x2="1072.77" y2="305.537" gradientUnits="userSpaceOnUse">
<stop stop-color="white"/>
<stop offset="0.25" stop-color="white" stop-opacity="0.43"/>
<stop offset="0.5" stop-color="white"/>
<stop offset="0.75" stop-color="white" stop-opacity="0.42"/>
<stop offset="1" stop-color="white"/>
</linearGradient>
</defs>
</svg>
