<svg width="42" height="42" viewBox="0 0 42 42" fill="none" xmlns="http://www.w3.org/2000/svg">
<path d="M20.9999 42C32.4675 42 42 32.4882 42 21C42 9.53237 32.447 0 20.9794 0C9.49108 0 0 9.53237 0 21C0 32.4882 9.51172 42 20.9999 42ZM20.9999 38.5C11.2823 38.5 3.52048 30.7176 3.52048 21C3.52048 11.3029 11.2617 3.50001 20.9794 3.50001C30.6763 3.50001 38.4793 11.3029 38.5 21C38.5206 30.7176 30.697 38.5 20.9999 38.5ZM15.647 30.9441H26.3528C27.7735 30.9441 28.4529 30.2441 28.4529 28.7V20.4647C28.4529 19.1058 27.9381 18.4059 26.847 18.2412V15.7912C26.847 11.7765 24.4175 9.1824 20.9999 9.1824C17.5823 9.1824 15.1528 11.7765 15.1528 15.7912V18.2618C14.0616 18.4265 13.5264 19.1265 13.5264 20.4647V28.7C13.5264 30.2441 14.2058 30.9441 15.647 30.9441ZM17.2941 15.5647C17.2941 12.9706 18.7764 11.2618 20.9999 11.2618C23.2235 11.2618 24.7058 12.9706 24.7058 15.5647V18.2206H17.2941V15.5647Z" fill="black" fill-opacity="0.25"/>
</svg>
