<svg width="26" height="27" viewBox="0 0 26 27" fill="none" xmlns="http://www.w3.org/2000/svg">
<path d="M3.5 1.83331V3.08332" stroke="#4C241D" stroke-width="1.65749" stroke-linecap="round" stroke-linejoin="round"/>
<path d="M3.5 4.75006V6.00007" stroke="#4C241D" stroke-width="1.65749" stroke-linecap="round" stroke-linejoin="round"/>
<path d="M2.667 3.91669H1.41699" stroke="#4C241D" stroke-width="1.65749" stroke-linecap="round" stroke-linejoin="round"/>
<path d="M5.58302 3.91669H4.33301" stroke="#4C241D" stroke-width="1.65749" stroke-linecap="round" stroke-linejoin="round"/>
<path d="M17.0414 19.7501C21.989 19.7501 25.9998 15.7393 25.9998 10.7917C25.9998 5.84413 21.989 1.83331 17.0414 1.83331C12.0938 1.83331 8.08301 5.84413 8.08301 10.7917C8.08301 15.7393 12.0938 19.7501 17.0414 19.7501Z" fill="#FFE5D2"/>
<path d="M19.9587 3.08335C20.534 3.08335 21.0003 2.61698 21.0003 2.04168C21.0003 1.46637 20.534 1 19.9587 1C19.3834 1 18.917 1.46637 18.917 2.04168C18.917 2.61698 19.3834 3.08335 19.9587 3.08335Z" stroke="#4C241D" stroke-width="1.65749" stroke-linecap="round" stroke-linejoin="round"/>
<path d="M23.709 19.1802C23.9695 19.1802 24.1806 18.969 24.1806 18.7085C24.1806 18.448 23.9695 18.2368 23.709 18.2368C23.4485 18.2368 23.2373 18.448 23.2373 18.7085C23.2373 18.969 23.4485 19.1802 23.709 19.1802Z" fill="#4C241D"/>
<path d="M24.959 23.3468C25.2195 23.3468 25.4306 23.1357 25.4306 22.8752C25.4306 22.6147 25.2195 22.4035 24.959 22.4035C24.6985 22.4035 24.4873 22.6147 24.4873 22.8752C24.4873 23.1357 24.6985 23.3468 24.959 23.3468Z" fill="#4C241D"/>
<path d="M20.791 23.7635C21.0515 23.7635 21.2627 23.5523 21.2627 23.2918C21.2627 23.0313 21.0515 22.8201 20.791 22.8201C20.5305 22.8201 20.3193 23.0313 20.3193 23.2918C20.3193 23.5523 20.5305 23.7635 20.791 23.7635Z" fill="#4C241D"/>
<path d="M24.6822 5.44293L23.1514 6.97378" stroke="#4C241D" stroke-width="1.65749" stroke-linecap="round" stroke-linejoin="round"/>
<path d="M23.1514 5.44293L24.6822 6.97378" stroke="#4C241D" stroke-width="1.65749" stroke-linecap="round" stroke-linejoin="round"/>
<path d="M13.5004 23.5002C18.7932 23.5002 23.0838 19.2096 23.0838 13.9168C23.0838 8.62401 18.7932 4.33337 13.5004 4.33337C8.20763 4.33337 3.91699 8.62401 3.91699 13.9168C3.91699 19.2096 8.20763 23.5002 13.5004 23.5002Z" fill="#FFCE56" stroke="#4C241D" stroke-width="1.65749" stroke-linecap="round" stroke-linejoin="round"/>
<path d="M8.31252 8.50006C7.23124 9.53561 6.48462 10.8711 6.16879 12.3346C5.85295 13.798 5.98234 15.3226 6.54031 16.7119C7.09828 18.1012 8.05929 19.2917 9.29963 20.1302C10.54 20.9687 12.0029 21.4168 13.5001 21.4168C14.9972 21.4168 16.4602 20.9687 17.7005 20.1302C18.9408 19.2917 19.9018 18.1012 20.4598 16.7119C21.0178 15.3226 21.1472 13.798 20.8313 12.3346C20.5155 10.8711 19.7689 9.53561 18.6876 8.50006" stroke="#FC8C29" stroke-width="1.65749" stroke-linecap="round" stroke-linejoin="round"/>
<path d="M11.2542 11.0317L13.3301 11.7734C13.4392 11.8122 13.5584 11.8122 13.6676 11.7734L15.7434 11.0317C15.8328 10.9994 15.9295 10.9931 16.0223 11.0138C16.1151 11.0344 16.2001 11.0811 16.2673 11.1483C16.3345 11.2155 16.3812 11.3005 16.4018 11.3933C16.4224 11.4861 16.4162 11.5828 16.3838 11.6722L15.6422 13.7501C15.6034 13.8593 15.6034 13.9784 15.6422 14.0876L16.3838 16.1635C16.4162 16.2528 16.4224 16.3496 16.4018 16.4424C16.3812 16.5351 16.3345 16.6201 16.2673 16.6873C16.2001 16.7545 16.1151 16.8012 16.0223 16.8218C15.9295 16.8425 15.8328 16.8363 15.7434 16.8039L13.6676 16.0622C13.5584 16.0235 13.4392 16.0235 13.3301 16.0622L11.2542 16.8039C11.1648 16.8363 11.0681 16.8425 10.9753 16.8218C10.8825 16.8012 10.7975 16.7545 10.7303 16.6873C10.6631 16.6201 10.6165 16.5351 10.5958 16.4424C10.5752 16.3496 10.5814 16.2528 10.6138 16.1635L11.3555 14.0876C11.3942 13.9784 11.3942 13.8593 11.3555 13.7501L10.6138 11.6743C10.5809 11.5848 10.5742 11.4877 10.5946 11.3946C10.615 11.3015 10.6616 11.2161 10.7289 11.1485C10.7962 11.081 10.8814 11.0341 10.9745 11.0134C11.0676 10.9927 11.1646 10.9991 11.2542 11.0317Z" fill="white" stroke="#4C241D" stroke-width="1.65749" stroke-linecap="round" stroke-linejoin="round"/>
<path d="M6.00004 26.0002C8.76149 26.0002 11.0001 23.7616 11.0001 21.0002C11.0001 18.2387 8.76149 16.0001 6.00004 16.0001C3.23859 16.0001 1 18.2387 1 21.0002C1 23.7616 3.23859 26.0002 6.00004 26.0002Z" fill="#FFCE56" stroke="#4C241D" stroke-width="1.65749" stroke-linecap="round" stroke-linejoin="round"/>
<path d="M6.00003 24.7502C8.07112 24.7502 9.75006 23.0712 9.75006 21.0002C9.75006 18.9291 8.07112 17.2501 6.00003 17.2501C3.92895 17.2501 2.25 18.9291 2.25 21.0002C2.25 23.0712 3.92895 24.7502 6.00003 24.7502Z" stroke="#FC8C29" stroke-width="1.65749" stroke-linecap="round" stroke-linejoin="round"/>
</svg>
