<svg width="42" height="42" viewBox="0 0 42 42" fill="none" xmlns="http://www.w3.org/2000/svg">
<path d="M21 42C32.598 42 42 32.598 42 21C42 9.40202 32.598 0 21 0C9.40202 0 0 9.40202 0 21C0 32.598 9.40202 42 21 42Z" fill="#382B73"/>
<path d="M21.0001 39.1666C31.0332 39.1666 39.1667 31.0331 39.1667 21C39.1667 10.9669 31.0332 2.8334 21.0001 2.8334C10.967 2.8334 2.8335 10.9669 2.8335 21C2.8335 31.0331 10.967 39.1666 21.0001 39.1666Z" fill="#473080"/>
<path d="M29.7851 17.0322C29.8062 16.953 29.8432 16.8792 29.8959 16.8106L33.906 11.9141C33.9904 11.8085 34.0326 11.6872 34.0379 11.5711C34.0485 11.2651 33.811 10.9749 33.4628 10.9749H33.2042L24.6565 10.9696C23.1738 10.9696 21.7967 11.7241 20.9947 12.9694L20.963 13.0221C20.1346 14.3148 18.7153 15.0905 17.1851 15.0905C16.2354 15.0905 15.1168 15.0905 14.0457 15.0905V14.4784C14.0457 13.65 13.3703 12.9746 12.5419 12.9746C12.5103 12.9746 12.4786 12.9746 12.4469 12.9799C12.4364 12.9799 12.4311 12.9799 12.4206 12.9799C12.3995 12.9799 12.3731 12.9852 12.352 12.9852C12.3467 12.9852 12.3361 12.9852 12.3309 12.9905C12.2675 13.001 12.2095 13.0116 12.1515 13.0274C12.1462 13.0274 12.1462 13.0274 12.1409 13.0327C12.1145 13.0379 12.0882 13.0485 12.0618 13.0591C12.0565 13.0591 12.0565 13.0591 12.0512 13.0643C11.9615 13.096 11.8718 13.1382 11.7927 13.1804C11.3442 13.439 11.0434 13.9244 11.0434 14.4837V15.1063C10.3839 15.1802 9.87207 15.7395 9.87207 16.4148V24.2292V26.1814C9.87207 26.8621 10.3839 27.4161 11.0434 27.49V32.7611C11.0434 33.3151 11.3442 33.8005 11.7927 34.0643C11.8718 34.1118 11.9615 34.154 12.0512 34.1804C12.0565 34.1804 12.0565 34.1804 12.0618 34.1857C12.0882 34.1962 12.1145 34.2015 12.1409 34.2121C12.1462 34.2121 12.1462 34.2121 12.1515 34.2173C12.2095 34.2332 12.2728 34.2437 12.3309 34.2543C12.3361 34.2543 12.3467 34.2543 12.352 34.2596C12.3731 34.2648 12.3995 34.2648 12.4206 34.2648H12.4469C12.4786 34.2648 12.5103 34.2701 12.5419 34.2701C13.3703 34.2701 14.0457 33.5947 14.0457 32.7663V27.5005H17.1904C17.7603 27.5005 18.3196 27.3897 18.8314 27.1892C18.8736 27.1734 18.9158 27.1523 18.958 27.1364C19.0424 27.0995 19.1268 27.0626 19.2113 27.0204C19.3748 26.9359 19.5331 26.841 19.6861 26.7407C19.7653 26.6879 19.8392 26.6352 19.913 26.5771C20.1716 26.3819 20.4037 26.155 20.6148 25.9018C20.7361 25.7593 20.8469 25.6063 20.9525 25.4427C21.3113 24.8834 21.7861 24.4191 22.3349 24.0709C22.3718 24.0445 22.414 24.0234 22.451 23.997C23.1263 23.6013 23.9072 23.3797 24.7145 23.3797H33.4628C33.753 23.3797 33.964 23.1792 34.0221 22.9417C34.0273 22.9312 34.0273 22.9153 34.0326 22.9048C34.0379 22.8678 34.0432 22.8256 34.0432 22.7887C34.0432 22.7729 34.0432 22.7623 34.0432 22.7465C34.0326 22.641 33.9904 22.5354 33.9165 22.4405L29.9065 17.544C29.8959 17.5281 29.8854 17.5176 29.8748 17.5018C29.8062 17.4068 29.7746 17.2907 29.7746 17.1799C29.7746 17.1482 29.7799 17.1166 29.7851 17.0849C29.7799 17.0638 29.7851 17.048 29.7851 17.0322Z" fill="#382B73"/>
<path d="M12.5419 33.2095C11.7135 33.2095 11.0381 32.5342 11.0381 31.7058V13.4231C11.0381 12.5947 11.7135 11.9193 12.5419 11.9193C13.3702 11.9193 14.0456 12.5947 14.0456 13.4231V31.7058C14.0456 32.5342 13.3702 33.2095 12.5419 33.2095Z" fill="white"/>
<path d="M12.5417 11.9193C12.2674 11.9193 12.0088 11.9932 11.7925 12.1198C12.241 12.3784 12.5417 12.8638 12.5417 13.4231V31.7058C12.5417 32.2598 12.241 32.7452 11.7925 33.009C12.0141 33.1357 12.2726 33.2095 12.5417 33.2095C13.3701 33.2095 14.0455 32.5342 14.0455 31.7058V13.4231C14.0455 12.5947 13.3701 11.9193 12.5417 11.9193Z" fill="#D1D3D4"/>
<path d="M33.4627 9.91958L24.6564 9.91431C23.1737 9.91431 21.7966 10.6688 20.9946 11.9141L20.9629 11.9668C20.1345 13.2595 18.7152 14.0352 17.185 14.0352C15.2855 14.0352 12.7212 14.0352 11.1858 14.0352C10.4577 14.0352 9.8667 14.6261 9.8667 15.3543V25.1208C9.8667 25.849 10.4577 26.4399 11.1858 26.4399H17.1903C18.7152 26.4399 20.1293 25.6643 20.9524 24.3821C21.7755 23.1 23.1948 22.3244 24.7144 22.3244H33.4627C33.9481 22.3244 34.2172 21.7598 33.9059 21.3852L29.8958 16.4887C29.7217 16.2776 29.7217 15.9716 29.8958 15.7605L33.9059 10.8641C34.2172 10.4842 33.9481 9.91958 33.4627 9.91958Z" fill="#FEDE3A"/>
<path d="M33.0775 20.3721H24.7144C23.1896 20.3721 21.7755 21.1477 20.9524 22.4299C20.1293 23.712 18.7099 24.4877 17.1903 24.4877H11.1858C10.4577 24.4877 9.8667 23.8967 9.8667 23.1686V25.1208C9.8667 25.849 10.4577 26.4399 11.1858 26.4399H17.1903C18.7152 26.4399 20.1293 25.6643 20.9524 24.3821C21.7755 23.1 23.1948 22.3244 24.7144 22.3244H33.4627C33.9481 22.3244 34.2172 21.7598 33.9059 21.3852L33.0775 20.3721Z" fill="#E7AD27"/>
<path d="M29.9011 16.4887C29.727 16.2776 29.727 15.9716 29.9011 15.7605L33.9112 10.8641C34.2172 10.4894 33.9534 9.92487 33.4679 9.92487H33.2094L29.1255 14.758C28.925 14.9955 28.925 15.3384 29.1255 15.5706L30.3549 17.0374L29.9011 16.4887Z" fill="#E7AD27"/>
<path d="M20.9526 22.4299C21.1109 22.1766 21.2955 21.9497 21.5013 21.7387V13.6764C21.5013 13.2859 21.037 13.0801 20.7468 13.3387L20.0134 13.993C19.9184 14.0774 19.8604 14.1987 19.8604 14.3306V23.6012C20.2877 23.2847 20.6571 22.8889 20.9526 22.4299Z" fill="#FFC733"/>
</svg>
